<svg width="88" height="116" viewBox="0 0 88 116" fill="none" xmlns="http://www.w3.org/2000/svg">
<path d="M33.9512 115.62C32.1512 115.62 30.3112 115.5 28.5112 115.26C19.2712 114.04 11.0512 109.06 6.51116 101.94C0.871162 93.0901 1.44116 82.5901 1.93116 73.3201C2.07116 70.6701 2.21116 68.1701 2.22116 65.7101C2.23116 61.7901 1.91116 57.8001 1.57116 53.5901C0.701161 42.8701 -0.208839 31.7801 4.72116 21.4201C10.6512 8.97011 24.5712 0.600098 39.3612 0.600098H39.4812C53.0912 0.640098 66.5312 7.42008 75.4312 18.7401C83.3912 28.8601 87.5312 42.1801 87.0812 56.2401C86.6612 69.4501 80.9412 84.1301 71.7912 95.5001C61.3612 108.47 47.9212 115.61 33.9512 115.61V115.62Z" fill="#AE868B"/>
<path d="M33.9514 111.62C32.3214 111.62 30.6614 111.51 29.0314 111.3C20.9514 110.24 13.7914 105.94 9.88139 99.8001C4.93139 92.0301 5.44139 82.6301 5.92139 73.5501C6.06139 70.9701 6.20139 68.3001 6.21139 65.7401C6.22139 61.6501 5.88139 57.3901 5.54139 53.2801C4.71139 43.0801 3.85139 32.5401 8.32139 23.1501C13.6014 12.0601 26.0714 4.61011 39.3514 4.61011H39.4614C51.6714 4.65011 64.2514 11.0101 72.2814 21.2201C79.6614 30.6001 83.4914 43.0001 83.0814 56.1201C82.2614 81.7901 60.6214 111.62 33.9514 111.62Z" fill="#EBBCC3"/>
<path d="M29.1612 110.31C21.7812 109.34 14.6612 105.44 10.7312 99.2601C4.56122 89.5701 7.18122 77.15 7.22122 65.74C7.27122 51.52 3.09122 36.47 9.23122 23.58C14.4812 12.55 27.0012 5.57003 39.4612 5.61003C51.9212 5.65003 63.9112 12.19 71.5012 21.84C79.0912 31.49 82.4712 43.94 82.0812 56.09C81.2712 81.55 58.6312 114.19 29.1612 110.31Z" fill="#854951"/>
<path d="M33.9509 101.62C32.7509 101.62 31.5409 101.54 30.3309 101.38C25.2209 100.71 20.6209 98.0401 18.3109 94.4201C15.0809 89.3601 15.4809 81.9301 15.9109 74.0801C16.0609 71.3701 16.2109 68.5801 16.2209 65.7701C16.2409 61.2501 15.8709 56.7801 15.5209 52.4601C14.7609 43.1701 14.0509 34.4001 17.3609 27.4501C20.9609 19.8901 30.0009 14.6101 39.3609 14.6101C48.6709 14.6401 58.2509 19.5401 64.4309 27.4101C70.3609 34.9401 73.4309 45.0301 73.0909 55.8101C72.4309 76.5601 54.8209 101.63 33.9509 101.63V101.62Z" fill="#78353E"/>
<path d="M3.4707 64.1001V71.0501C4.0207 68.8001 5.1607 67.0201 6.4507 66.2201C7.7407 65.4201 9.2307 65.6201 10.4407 66.7801C11.7507 68.0301 12.6707 70.2401 13.6507 72.2501C14.6207 74.2601 15.7907 76.2201 17.2507 76.6701C19.0107 77.2101 20.7807 75.3501 21.9007 72.8601C22.3907 71.7701 22.7907 70.5501 23.3107 69.5001C23.8307 68.4501 24.5007 67.5602 25.2807 67.3902C26.3507 67.1602 27.3707 68.3701 28.1007 69.7901C28.8307 71.2101 29.3907 72.9201 30.2007 74.2001C31.0107 75.4801 32.2007 76.2801 33.1807 75.4601C33.1807 74.8301 33.2907 74.3301 33.2907 73.7001C32.0007 73.0701 31.0507 71.2501 30.3007 69.2801C29.5507 67.3101 28.8407 65.1601 27.7107 63.9001C26.5307 62.5901 25.0307 62.4401 23.7007 63.1301C22.3707 63.8201 21.2007 65.2901 20.2107 67.0101C19.3907 68.4301 18.4507 70.1901 17.3307 69.8101C16.3907 69.5001 15.8407 67.8301 15.2607 66.4701C13.8607 63.1801 11.6507 61.0101 9.3507 60.6601C7.0407 60.3101 5.1607 61.2601 3.4707 64.0901V64.1001Z" fill="#AE868B"/>
<path d="M33.3108 91.2601C33.1308 87.0201 36.0308 83.1501 32.7908 80.4201C29.9308 78.0101 26.9608 75.5301 23.3908 74.4001C22.0708 73.9801 20.7208 73.6701 19.4008 73.5801C18.1408 73.5001 16.9208 74.0401 16.1608 75.0501C15.6408 75.7401 15.2608 76.5501 15.0708 77.4901C14.7408 79.1401 15.0208 81.8701 15.2808 83.5301C15.5408 85.1901 16.1008 88.0301 15.7508 89.6801C15.5208 90.7401 14.7508 91.3901 13.7808 91.7901C12.9508 92.1401 11.7508 92.0301 11.1008 92.7401C10.3608 93.5401 11.1008 94.6701 11.7908 95.2201C12.6208 95.8801 13.7608 96.1101 14.8008 96.1401C16.8508 96.1901 19.0908 96.2801 20.9708 95.2501C22.8508 94.2301 23.2608 92.1801 23.3108 90.2001C23.3708 87.9101 22.8408 85.9601 22.8508 83.7001C22.9708 83.8001 23.0908 83.8901 23.1908 83.9801C26.9708 87.1301 29.5008 88.1201 33.2808 91.2701L33.3108 91.2601Z" fill="#CBA0A6"/>
<path d="M40.9509 57.5501C38.2509 58.8001 35.2009 59.2501 32.2509 58.8401C30.4809 57.9201 28.9409 56.3601 28.3109 54.4701C28.9609 52.2501 27.1809 49.3801 24.9309 48.8801C22.6709 48.3801 20.1709 50.0901 19.8209 52.3801C19.5709 54.0401 20.3109 55.6901 21.1109 57.1701C22.2709 59.3001 23.5909 61.3301 25.0609 63.2501C26.1809 64.7101 27.4709 66.1701 29.2009 66.7901C31.6209 67.6601 34.2809 66.7201 36.6809 65.7801C38.4209 63.2901 39.5909 60.2601 40.9509 57.5501Z" fill="#CBA0A6"/>
<path d="M38.1805 51.3501C37.0105 51.9401 35.8305 52.5301 34.5705 52.8501C33.3105 53.1801 31.9305 53.2301 30.7205 52.7501C29.5105 52.2701 28.4905 51.1901 28.3005 49.9001C27.6005 49.5001 27.1805 48.6301 27.2805 47.8301C26.3205 47.6001 25.6805 46.4301 25.9605 45.4801C25.5605 46.0901 24.3405 45.4501 24.1405 44.7501C23.9405 44.0501 24.2105 43.3101 24.3005 42.5901C24.4805 41.0201 23.7105 39.4801 22.7305 38.2401C21.7505 37.0001 20.5305 35.9501 19.5805 34.7001C16.7305 30.9501 16.5205 25.5801 18.4605 21.2801C20.4005 16.9801 24.2205 13.7301 28.5005 11.7701C32.3905 10.0001 36.7705 9.20012 40.9905 9.85012C45.2105 10.5001 49.2505 12.6601 51.8605 16.0401C54.1405 18.9801 55.2605 22.6701 55.9005 26.3301C56.9005 32.0001 53.9405 40.9501 54.5305 44.5101C58.3805 49.0701 61.6705 55.8601 61.7405 62.8701C61.8105 69.9701 60.4205 77.0101 58.5505 83.8601C57.6005 87.3201 56.5005 90.8101 54.4305 93.7401C52.3605 96.6701 49.1705 99.0001 45.5905 99.2101C41.1705 99.4701 37.0605 96.4201 34.9105 92.5601C32.7505 88.7001 32.2205 84.1501 32.0405 79.7301C31.6605 70.2601 32.8505 60.4301 37.5905 52.2201" fill="#EBBCC3"/>
<path d="M39.251 84.7302C36.561 82.3802 33.481 80.4601 30.181 79.0801C28.121 78.2101 25.691 77.5801 23.711 78.6101C22.121 79.4401 21.181 81.2202 21.001 83.0102C20.821 84.8002 21.301 86.5902 21.961 88.2602C23.121 91.2102 24.871 93.9302 27.061 96.2302C27.661 96.8602 28.311 97.4701 28.731 98.2401C29.151 99.0101 29.301 99.9801 28.861 100.74C28.111 102.06 26.021 102.18 25.411 103.57C25.041 104.4 25.391 105.42 26.071 106.03C26.751 106.63 27.681 106.88 28.581 106.93C31.491 107.1 34.301 105.46 36.141 103.2C37.981 100.94 39.001 98.1201 39.771 95.3001C38.861 92.0401 39.291 88.1201 39.261 84.7401L39.251 84.7302Z" fill="#EBBCC3"/>
<path d="M37.6302 57.1101C35.3802 59.0501 32.5702 60.3401 29.6302 60.7601C27.6802 60.3601 25.7602 59.3001 24.6302 57.6501C24.6302 55.3401 22.1402 53.0701 19.8302 53.2201C17.5202 53.3601 15.5902 55.7001 15.8902 58.0001C16.1102 59.6701 17.2802 61.0401 18.4602 62.2401C20.1602 63.9601 21.9902 65.5501 23.9402 66.9901C25.4202 68.0801 27.0602 69.1201 28.9002 69.2401C31.4702 69.4001 33.7602 67.7601 35.8002 66.2001C36.7802 63.3301 37.0602 60.0901 37.6302 57.1101Z" fill="#EBBCC3"/>
<path d="M28.1406 39.4601C30.2906 40.3901 33.0406 39.6401 34.4206 37.7601" stroke="#A17278" stroke-width="0.5" stroke-linecap="round" stroke-linejoin="round"/>
<path d="M43.0703 30.9402C43.1403 29.7502 44.3903 28.8502 45.5703 28.9602C46.7503 29.0702 47.7503 30.0202 48.1403 31.1502C48.5303 32.2702 48.3903 33.5202 47.9903 34.6402C47.6003 35.7502 46.9503 36.7702 46.0403 37.5202C45.6803 37.8202 45.2603 38.0802 44.8003 38.1202C44.3403 38.1602 43.8203 37.9202 43.6703 37.4902" stroke="#A17278" stroke-width="0.5" stroke-linecap="round" stroke-linejoin="round"/>
<path d="M33.0908 80.3002C37.0508 82.3302 40.7808 84.8002 44.1908 87.6602" stroke="#A17278" stroke-width="0.5" stroke-linecap="round" stroke-linejoin="round"/>
<path d="M36.4609 57.9601C38.8009 57.0701 41.0609 55.9401 43.1809 54.6101" stroke="#A17278" stroke-width="0.5" stroke-linecap="round" stroke-linejoin="round"/>
<path d="M33.9307 67.5601C37.0607 66.5401 40.0607 65.1201 42.8307 63.3601" stroke="#A17278" stroke-width="0.5" stroke-linecap="round" stroke-linejoin="round"/>
<path d="M37.3209 95.7101C34.6809 93.4801 32.3509 90.8902 30.4209 88.0302" stroke="#A17278" stroke-width="0.5" stroke-linecap="round" stroke-linejoin="round"/>
</svg>
