<svg width="77" height="78" viewBox="0 0 77 78" fill="none" xmlns="http://www.w3.org/2000/svg">
<path d="M43.4615 77.5201C42.2115 77.5201 40.9615 77.4401 39.7315 77.2801C29.9615 76.0001 20.4615 69.6901 13.6715 59.9801C1.25147 42.1901 -6.52853 18.8401 8.88147 6.61012C14.2315 2.36012 21.4015 0.120117 29.6115 0.120117C31.2515 0.120117 32.9315 0.210116 34.6115 0.390116C48.4315 1.86012 60.7615 8.60012 68.4315 18.8801C76.8615 30.1701 78.8515 45.3301 73.5015 57.4901C68.3215 69.2801 55.9615 77.5101 43.4615 77.5101V77.5201Z" fill="#AE868B"/>
<path d="M43.4614 73.5201C42.3914 73.5201 41.3114 73.4501 40.2514 73.3101C31.5914 72.1801 23.1014 66.4801 16.9514 57.6801C13.0214 52.0601 -5.7286 23.3101 11.3714 9.75012C16.0114 6.07012 22.3214 4.12012 29.6214 4.12012C31.1214 4.12012 32.6514 4.20012 34.1914 4.37012C46.7214 5.70012 58.3214 12.0201 65.2314 21.2701C72.8114 31.4301 74.6214 45.0201 69.8414 55.8801C65.2814 66.2601 54.4314 73.5101 43.4614 73.5101V73.5201Z" fill="#EBBCC3"/>
<path d="M11.9915 10.5301C18.0715 5.71013 26.3715 4.54013 34.0815 5.36013C45.8615 6.61013 57.3415 12.3701 64.4215 21.8701C71.5115 31.3601 73.6915 44.6401 68.9215 55.4801C64.1515 66.3201 52.1315 73.8601 40.3815 72.3201C31.1115 71.1101 23.1315 64.7701 17.7715 57.1101C9.62152 45.4501 -2.32848 21.9001 11.9915 10.5301Z" fill="#854951"/>
<path d="M43.4617 63.5201C42.8217 63.5201 42.1817 63.4801 41.5517 63.4001C35.6717 62.6301 29.6917 58.4601 25.1517 51.9601C18.8717 42.9801 9.21171 24.2301 17.5917 17.5901C21.1917 14.7301 26.1217 14.1301 29.6217 14.1301C30.7617 14.1301 31.9517 14.1901 33.1417 14.3201C42.9517 15.3601 51.9517 20.2001 57.2217 27.2601C62.6017 34.4701 64.0017 44.3601 60.6917 51.8701C57.7217 58.6301 50.4817 63.5301 43.4617 63.5301V63.5201Z" fill="#78353E"/>
<path d="M5.92188 38.6201C6.53188 39.6901 10.1919 43.4701 11.4219 44.1101C12.6519 44.7501 14.2019 45.0201 15.6119 44.7201C18.1219 44.2001 19.7719 42.0701 22.3019 41.6201C24.0019 41.3201 25.7719 41.8501 27.2219 42.6401C28.6619 43.4201 29.8819 44.4501 31.2619 45.3001C32.6419 46.1501 34.2819 46.8501 36.0219 46.8101C37.7619 46.7701 39.5519 45.7701 39.7419 44.3801C40.1719 44.5201 40.8419 44.6801 41.2719 44.8201C41.5219 45.9501 41.0019 47.2201 40.1719 48.1501C39.3419 49.0801 38.0219 49.7101 36.6119 49.8601C35.0519 50.0301 33.4819 49.6301 32.0419 49.1101C30.6019 48.6001 29.2219 47.9601 27.7019 47.6101C26.1919 47.2601 24.4719 47.2401 23.1319 47.9101C22.0819 48.4401 21.3919 49.3201 20.5519 50.0501C19.1919 51.2201 17.3519 52.0201 15.3919 52.2901C13.4319 52.5601 11.3619 52.2901 9.60187 51.5601C8.82187 48.3501 5.99188 41.8801 5.92188 38.6201Z" fill="#AE868B"/>
<path d="M38.0321 39.2801C34.7921 39.4801 31.4421 38.5401 28.9321 36.4601C26.4221 34.3901 24.8521 31.1601 25.0021 27.9101C25.1621 24.6601 27.1521 21.5101 30.1321 20.2001C34.2421 18.3901 39.2221 20.3202 42.3121 23.5802C48.2221 22.1602 54.6721 25.1102 57.8221 30.3102C60.9721 35.5102 60.9721 42.2801 58.5521 47.8601C57.0421 51.3401 54.5921 54.4902 51.2921 56.3702C47.9921 58.2502 43.8221 58.7302 40.3521 57.1902C39.6321 56.8702 38.8421 56.2201 39.0721 55.4701C39.3021 54.7301 40.2821 54.6301 41.0521 54.5301C44.4621 54.1001 47.2021 50.6601 46.8521 47.2401C44.5221 48.2701 41.7621 48.0102 39.7621 46.4402C37.7621 44.8702 37.5821 41.7601 38.0321 39.2601V39.2801Z" fill="#EBBCC3"/>
<path d="M47.4023 46.5202C49.0023 46.1102 50.3423 44.7802 50.7523 43.1802" stroke="#A17278" stroke-width="0.5" stroke-linecap="round" stroke-linejoin="round"/>
<path d="M38.3721 38.2201C38.7821 36.6601 39.6121 35.2201 40.7521 34.0901" stroke="#A17278" stroke-width="0.5" stroke-linecap="round" stroke-linejoin="round"/>
<path d="M31.792 34.6201C32.692 34.5901 33.572 34.1401 34.112 33.4201C34.652 32.7001 34.852 31.7401 34.632 30.8601" stroke="#A17278" stroke-width="0.5" stroke-linecap="round" stroke-linejoin="round"/>
</svg>
