<svg width="92" height="117" viewBox="0 0 92 117" fill="none" xmlns="http://www.w3.org/2000/svg">
<path d="M34.1218 116.95C32.5318 116.95 30.9218 116.91 29.3218 116.82C24.1218 116.54 16.6318 115.18 10.5118 110.33C9.59178 109.6 8.7218 108.8 7.9318 107.96C-0.738204 98.7799 0.231799 87.4699 1.0918 77.4999C1.2218 76.0299 1.34181 74.5699 1.44181 73.1299C2.02181 64.2899 1.79178 55.3399 0.761782 46.5499C-0.658218 34.3799 -1.00821 17.1399 12.2118 8.00989C19.4318 3.02989 28.0618 0.389893 37.1618 0.389893C49.7118 0.389893 62.4118 5.36989 71.9918 14.0599C84.7918 25.6699 92.1718 43.6699 91.7318 62.2099C91.3618 77.6199 85.6018 92.1299 75.9218 102.01C66.4918 111.64 51.6418 116.95 34.1218 116.95Z" fill="#AE868B"/>
<path d="M34.122 112.95C32.612 112.95 31.062 112.91 29.532 112.82C24.912 112.57 18.282 111.39 12.992 107.19C12.222 106.58 11.492 105.91 10.832 105.21C3.392 97.3299 4.24199 87.4199 5.07199 77.8399C5.20199 76.3499 5.332 74.8599 5.422 73.3799C6.012 64.2999 5.782 55.1099 4.732 46.0799C3.432 34.9299 3.032 19.1999 14.482 11.2999C21.032 6.7799 28.872 4.38989 37.162 4.38989C48.732 4.38989 60.452 8.9899 69.302 17.0199C81.252 27.8599 88.142 44.7199 87.732 62.1099C87.382 76.5199 82.042 90.0399 73.062 99.2099C64.392 108.07 50.562 112.95 34.122 112.95Z" fill="#EBBCC3"/>
<path d="M13.6116 106.41C12.8916 105.84 12.2016 105.21 11.5616 104.53C3.29165 95.7799 5.72164 84.2599 6.42164 73.4499C7.02164 64.2899 6.78165 55.0799 5.72165 45.9699C4.34165 34.0999 4.30163 19.5399 15.0416 12.1299C31.5916 0.709914 54.1416 4.64991 68.6216 17.7699C80.7316 28.7499 87.1217 45.5799 86.7217 62.0999C86.4017 75.5099 81.6216 89.0399 72.3316 98.5199C61.4516 109.63 44.4216 112.64 29.5716 111.83C23.8816 111.52 18.0416 109.94 13.6016 106.41H13.6116Z" fill="#854951"/>
<path d="M34.1218 102.95C32.7918 102.95 31.4318 102.91 30.0818 102.84C25.5918 102.59 21.7318 101.36 19.2118 99.3599C18.8118 99.0499 18.4418 98.7099 18.1118 98.3499C13.9618 93.9499 14.2418 88.0199 15.0418 78.6999C15.1718 77.1399 15.3118 75.5799 15.4118 74.0299C16.0418 64.3399 15.7918 54.5499 14.6718 44.9199C13.0818 31.2799 14.8318 23.2099 20.1718 19.5299C25.0418 16.1699 30.9218 14.3899 37.1718 14.3899C46.2918 14.3899 55.5518 18.0499 62.5918 24.4299C72.4218 33.3399 78.0918 47.3399 77.7418 61.8799C77.4518 73.7799 73.1518 84.8399 65.9218 92.2199C56.7718 101.56 42.0718 102.95 34.1318 102.95H34.1218Z" fill="#78353E"/>
<path d="M43.3516 58.5999C40.8816 58.5499 38.5616 58.2198 36.7316 57.5898C36.2216 55.7898 34.4116 54.1999 32.5516 54.1299C30.6916 54.0599 28.8416 55.2898 28.1916 57.0398C27.3416 59.3398 28.5716 62.0098 30.5016 63.5398C32.4316 65.0598 34.9016 65.6898 37.3016 66.1898C39.0616 66.5598 41.4016 66.8398 43.8716 66.9998C45.1016 67.0798 46.3416 66.8199 47.4416 66.2699C49.8416 65.0599 52.0616 63.7298 53.5616 62.4998C53.1016 58.9998 52.1516 54.9398 51.0516 51.5898C49.4716 54.0198 46.5816 56.5598 43.3616 58.6098L43.3516 58.5999Z" fill="#CBA0A6"/>
<path d="M3.01155 64.0599C2.71155 66.7899 2.67158 69.5799 2.88158 72.3299C3.89158 70.3899 5.18156 68.6099 6.55156 67.2699C7.92156 65.9299 9.72156 65.3199 11.2116 66.3299C13.2616 67.7099 14.2616 71.6999 16.4416 72.5199C17.8216 73.0399 19.2816 72.0499 20.3216 70.5899C21.3615 69.1299 22.0716 67.2299 22.8716 65.4499C23.9116 63.1199 25.1316 60.9199 26.7016 59.4199C28.2716 57.9199 30.2416 57.2099 32.0316 57.9899C34.7416 59.1799 36.3216 63.2699 38.3716 66.1899C40.6116 69.3699 43.6316 71.2699 46.7016 71.4399C46.8016 70.7299 46.9116 70.0899 47.0116 69.3799C45.0316 69.8399 43.0416 68.4799 41.4816 66.5799C39.9216 64.6799 38.6815 62.2599 37.2616 60.1199C35.3116 57.1899 32.9516 54.7399 30.2516 53.8799C27.5516 53.0199 24.5216 53.9999 22.6416 57.0199C21.8416 58.2899 21.2916 59.8599 20.5616 61.2199C19.8316 62.5799 18.8616 63.7999 17.7016 63.9499C16.5916 64.0899 15.5416 63.2199 14.5516 62.4399C12.6016 60.8999 10.5116 59.5499 8.31157 59.5299C6.11157 59.5099 3.38156 60.7999 3.02156 64.0699L3.01155 64.0599Z" fill="#AE868B"/>
<path d="M49.8318 84.5399C48.3718 80.2899 50.1518 75.4799 46.0318 73.6799C42.3918 72.0899 38.6418 70.4699 34.6718 70.3999C33.2118 70.3699 31.7318 70.4599 30.3718 70.7699C29.0718 71.0599 27.9918 71.9899 27.5218 73.2399C27.2018 74.0999 27.0618 75.0299 27.1518 76.0499C27.3218 77.8299 28.4218 80.5099 29.1918 82.1199C29.9618 83.7299 31.3818 86.4499 31.5218 88.2299C31.6618 90.0099 30.3618 90.9099 28.8518 91.8599C28.3918 92.1499 27.8218 92.3899 27.6318 92.8999C27.4118 93.4799 27.8318 94.1499 28.4018 94.4199C28.9718 94.6799 29.6218 94.6399 30.2418 94.5699C32.2218 94.3499 34.1718 93.9399 36.0718 93.3399C37.3318 92.9399 38.6618 92.3799 39.3418 91.2499C40.1918 89.8499 39.7918 88.0499 39.3618 86.4699C38.7318 84.1199 37.6118 82.2999 36.9418 79.9999C37.0918 80.0599 37.2418 80.1199 37.3718 80.1799C42.1618 82.2399 45.0318 82.4899 49.8318 84.5499V84.5399Z" fill="#CBA0A6"/>
<path d="M48.3616 55.1199C47.1516 56.1599 45.4916 56.5399 43.9016 56.3499C42.3116 56.1599 40.8216 55.4199 39.8816 54.1299C38.9616 54.8199 38.6316 55.2499 37.3116 54.7999C36.0016 54.3499 34.5015 52.6899 34.0115 50.6499C28.9215 50.9399 23.7716 48.6299 20.8616 44.4599C17.9416 40.2799 17.1616 34.7699 18.4616 29.8499C19.7616 24.9299 23.0516 20.6199 27.2716 17.7599C30.9416 15.2699 35.3815 13.8299 39.8215 14.0299C44.2615 14.2299 48.6515 16.1499 51.5715 19.4899C55.5115 23.9899 56.7015 30.7399 61.5715 34.1999C67.1015 38.1299 71.5516 43.0799 73.9416 49.4299C75.7616 54.2599 76.3216 59.5199 75.8916 64.6699C75.1316 73.8299 71.2116 82.6899 64.9416 89.4199C62.3116 92.2399 58.9916 94.8099 55.1416 94.9999C50.1616 95.2399 45.7216 91.2299 44.0516 86.5399C42.3716 81.8499 42.9316 76.6599 43.9816 71.7799C45.2115 66.0499 45.8516 60.4299 48.3616 55.1299V55.1199Z" fill="#EBBCC3"/>
<path d="M48.5514 92.75C44.5414 89.41 41.8614 88.36 37.8514 85.02C37.0514 84.36 35.7714 83.38 34.7414 83.4C33.2514 83.43 32.5314 84.53 31.7814 85.81C30.5014 87.99 30.0114 90.15 28.7314 92.34C27.9014 93.76 26.9014 95.3 25.3114 95.68C24.0214 95.98 22.7014 95.43 21.5314 94.81C19.7714 93.88 18.1114 92.78 16.5614 91.52C16.0814 91.13 15.5914 90.69 15.3714 90.1C15.1614 89.51 15.3414 88.74 15.9114 88.49C16.4114 88.27 16.9714 88.51 17.5014 88.63C19.2414 89.04 20.7814 89.33 21.9614 87.98C23.1314 86.63 24.0614 83.71 24.6814 82.03C25.2914 80.35 25.9214 78.63 27.0714 77.27C29.6214 74.23 34.2514 73.67 38.0414 74.87C41.8214 76.07 44.9714 78.69 48.0014 81.25C51.4414 84.15 48.3614 88.25 48.5514 92.75Z" fill="#EBBCC3"/>
<path d="M50.0315 57.2C45.3015 60.73 39.0214 62.08 33.2614 60.83C32.5414 59.1 30.5614 57.74 28.7014 57.89C26.8414 58.04 25.1514 59.4799 24.7114 61.2899C24.1414 63.6799 25.6814 66.18 27.7714 67.47C29.8614 68.76 32.3915 69.08 34.8415 69.3C39.4615 69.71 44.2314 69.82 48.6114 68.3C49.3914 64.86 49.9114 60.72 50.0414 57.2H50.0315Z" fill="#EBBCC3"/>
<path d="M36.6714 49.1998C38.1114 49.1698 39.5314 48.5198 40.5014 47.4498C41.4714 46.3798 41.9914 44.9098 41.8914 43.4698" stroke="#A17278" stroke-width="0.5" stroke-linecap="round" stroke-linejoin="round"/>
<path d="M44.1012 32.0599C43.6112 30.7199 44.5212 29.1199 45.8612 28.6299C47.2012 28.1399 48.7812 28.6398 49.7912 29.6498C50.8112 30.6598 51.3212 32.0798 51.4712 33.5098C51.5512 34.2598 51.5212 35.0799 51.0912 35.7099C50.6712 36.3399 49.7312 36.6698 49.1212 36.2298" stroke="#A17278" stroke-width="0.5" stroke-linecap="round" stroke-linejoin="round"/>
<path d="M49.5913 54.0999C54.0313 51.9799 57.3513 47.6698 58.2813 42.8398" stroke="#A17278" stroke-width="0.5" stroke-linecap="round" stroke-linejoin="round"/>
<path d="M49.5615 58.8599C52.4115 58.3899 55.1515 57.2799 57.5215 55.6399" stroke="#A17278" stroke-width="0.5" stroke-linecap="round" stroke-linejoin="round"/>
<path d="M47.2212 69.0098C51.1912 68.7998 55.1112 67.6498 58.5712 65.6698" stroke="#A17278" stroke-width="0.5" stroke-linecap="round" stroke-linejoin="round"/>
<path d="M44.1113 78.0398C46.3413 79.5298 48.5713 81.0098 50.8013 82.4998" stroke="#A17278" stroke-width="0.5" stroke-linecap="round" stroke-linejoin="round"/>
</svg>
