<svg width="83" height="99" viewBox="0 0 83 99" fill="none" xmlns="http://www.w3.org/2000/svg">
<path d="M35.1317 98.51C29.1217 98.51 23.8017 97.35 19.3217 95.06C8.40167 89.49 3.2017 79.53 3.8817 65.44C3.9617 63.76 4.09168 62.08 4.21168 60.46C4.49168 56.81 4.76167 53.35 4.48167 50.01C4.25167 47.25 3.59168 44.32 2.89167 41.22C1.39167 34.59 -0.308329 27.08 2.23167 19.58C6.43167 7.14 17.8717 0 33.6017 0C48.0917 0 63.0117 6.14 70.7317 15.29C86.0117 33.39 86.4117 65.77 71.5617 83.22C63.9017 92.22 48.9217 98.51 35.1217 98.51H35.1317Z" fill="#AE868B"/>
<path d="M35.1316 94.51C29.7616 94.51 25.0516 93.5 21.1316 91.5C11.6016 86.64 7.26154 78.18 7.87154 65.63C7.95154 64 8.08153 62.36 8.20153 60.76C8.48153 57.11 8.77155 53.33 8.47155 49.67C8.22155 46.63 7.53152 43.57 6.79152 40.33C5.34152 33.92 3.84154 27.29 6.02154 20.85C9.64154 10.14 19.7015 3.98999 33.6015 3.98999C46.7715 3.98999 60.7815 9.68999 67.6815 17.86C81.8215 34.61 82.2215 64.52 68.5215 80.62C61.5715 88.79 47.8416 94.5 35.1316 94.5V94.51Z" fill="#EBBCC3"/>
<path d="M8.87182 65.68C9.13182 60.32 9.91182 54.95 9.47182 49.59C8.70182 40.31 3.83182 30.46 6.97182 21.17C15.0918 -2.84997 53.8318 3.00003 66.9218 18.51C80.2518 34.3 81.3918 63.96 67.7618 79.98C58.2218 91.2 35.2518 97.57 21.5918 90.61C11.4818 85.45 8.35182 76.58 8.87182 65.68Z" fill="#854951"/>
<path d="M35.1319 84.51C31.4119 84.51 28.1419 83.85 25.6819 82.59C21.3219 80.37 17.3518 76.83 17.8618 66.11C17.9318 64.63 18.0518 63.13 18.1718 61.54C18.4818 57.5 18.8119 53.32 18.4419 48.86C18.1319 45.12 17.3318 41.57 16.5518 38.13C15.3018 32.61 14.2219 27.84 15.5019 24.06C18.4619 15.31 28.1218 14 33.6118 14C43.8818 14 55.0018 18.34 60.0518 24.32C70.9218 37.2 71.3518 61.88 60.9218 74.15C55.9018 80.06 44.8118 84.51 35.1418 84.51H35.1319Z" fill="#78353E"/>
<path d="M38.0419 59.1199C36.8519 57.5599 35.6219 55.9999 34.1719 54.9899C32.7119 53.9799 30.9719 53.5699 29.4519 54.3799C27.8319 55.2499 26.7219 57.3399 25.2619 58.6599C23.4519 60.3099 21.0919 60.6799 19.0619 59.6399C16.8419 58.4999 15.0819 55.8099 12.7719 55.1199C10.4119 54.4199 7.73187 56.2599 6.67188 59.3199C6.35188 56.6899 6.10188 54.0499 5.92188 51.3899C7.70187 50.0599 9.69188 49.0699 11.6419 49.7599C14.1919 50.6599 15.9419 54.0599 18.3919 55.4299C19.8519 56.2499 21.5119 56.2899 22.9919 55.5399C24.8219 54.6099 26.2619 52.5799 28.0019 51.3499C29.9519 49.9799 32.2819 49.6799 34.3719 50.5499C36.4619 51.4199 38.3119 53.4299 39.4319 56.0799C38.7519 56.7599 38.4719 58.1099 38.0419 59.1199Z" fill="#AE868B"/>
<path d="M39.6617 66.7799C38.8917 66.5299 38.0217 66.7599 37.3717 67.2399C36.7217 67.7199 36.2717 68.4199 35.9517 69.1699C35.6317 69.9099 35.4417 70.6999 35.2217 71.4799C34.9317 72.4899 34.5917 73.4799 34.1917 74.4499C34.0417 74.8299 33.8617 75.2199 33.5317 75.4699C32.9517 75.9099 32.1217 75.7499 31.4217 75.5599C30.2217 75.2399 29.0017 74.9099 27.9717 74.2299C27.6717 74.0299 27.3717 73.7899 27.2217 73.4499C27.0717 73.1199 27.1117 72.6799 27.3917 72.4499C27.1817 72.2799 27.1217 71.9499 27.1717 71.6899C27.2217 71.4299 27.4317 71.1899 27.6917 71.1099C27.6217 70.7699 27.9417 70.3799 28.2917 70.3599C28.1517 70.0399 28.4417 69.6399 28.7817 69.5599C29.1217 69.4799 29.4817 69.6199 29.7717 69.8199C30.0617 70.0099 30.3217 70.2599 30.6317 70.4299C30.7917 70.5099 30.9717 70.5799 31.1417 70.5199C31.5017 70.4099 31.5217 69.9199 31.5017 69.5499C31.4117 67.7799 31.9817 65.9899 33.0817 64.5999C34.1817 63.2099 35.8017 62.2499 37.5417 61.9299C38.2217 63.4599 38.9917 65.2699 39.6717 66.7999L39.6617 66.7799Z" fill="#CBA0A6"/>
<path d="M43.2219 46.3499C41.0919 48.4599 37.5519 48.5899 34.8419 47.3099C32.1319 46.0299 30.1419 43.5999 28.5619 41.0499C27.8919 39.9699 28.4419 38.5499 28.8119 37.3399C25.2919 35.0099 24.3019 29.8399 25.9419 25.9399C27.5819 22.0399 31.3019 19.3199 35.2919 17.9299C38.5219 16.7999 42.1019 16.4399 45.3519 17.4999C49.7319 18.9299 53.0019 22.8099 54.6819 27.0999C56.3619 31.3899 56.6619 36.0999 56.6819 40.7099C56.7119 48.6799 55.9719 56.6599 54.4319 64.4699C53.8919 67.2099 52.9819 69.8799 51.3519 72.1499C48.2619 76.4399 41.8319 76.0299 37.5119 76.4199C36.9219 76.4699 36.1619 76.4199 35.9619 75.8699C35.7219 75.1799 36.6219 74.6499 37.3519 74.6099C38.0819 74.5699 40.8319 74.6399 41.2419 74.0399C38.5319 73.4799 36.5619 70.9199 35.7119 68.2799C34.8619 65.6399 35.1619 62.7499 36.0319 60.1199C36.9019 57.4899 38.3219 55.0799 39.7219 52.6999C40.9419 50.6299 42.0119 48.4199 43.2319 46.3499H43.2219Z" fill="#EBBCC3"/>
<path d="M35.7518 65.8099C35.2518 65.1799 34.4018 64.8799 33.6018 64.9099C32.7918 64.9499 32.0218 65.2799 31.3518 65.7199C30.6718 66.1599 30.0818 66.7099 29.4618 67.2299C28.6618 67.9099 27.8218 68.5399 26.9518 69.1199C26.6118 69.3499 26.2418 69.5799 25.8418 69.5999C25.1118 69.6399 24.5218 69.0499 24.0418 68.4899C23.2218 67.5599 22.3918 66.5999 21.9118 65.4599C21.7718 65.1199 21.6618 64.7599 21.7218 64.3999C21.7818 64.0399 22.0618 63.6999 22.4218 63.6699C22.3418 63.4099 22.4718 63.1099 22.6618 62.9099C22.8518 62.7199 23.1518 62.6399 23.4118 62.7199C23.5418 62.3999 24.0218 62.2499 24.3218 62.4299C24.3918 62.0899 24.8418 61.9199 25.1718 62.0399C25.5018 62.1599 25.7218 62.4799 25.8518 62.7999C25.9818 63.1199 26.0618 63.4699 26.2218 63.7799C26.3018 63.9399 26.4218 64.0899 26.5918 64.1399C26.9518 64.2499 27.2418 63.8499 27.4318 63.5299C28.3418 62.0099 29.8118 60.8399 31.5018 60.2999C33.1918 59.7599 35.0718 59.8599 36.6918 60.5699C36.4018 62.2199 36.0318 64.1499 35.7518 65.7999V65.8099Z" fill="#EBBCC3"/>
<path d="M39.4419 57.0599C38.1419 57.2899 36.8019 57.5199 35.5019 57.2599C34.3519 57.0299 33.3019 56.4199 32.3719 55.6999C31.0319 54.6599 29.9119 53.3799 28.7919 52.1099C27.9419 51.1499 27.0919 50.1699 26.4319 49.0799C26.1819 48.6599 25.9519 48.2199 25.9019 47.7299C25.8519 47.2499 26.0019 46.7199 26.3919 46.4199C26.3819 45.9299 26.7019 45.4599 27.1219 45.2099C27.4819 44.9999 27.9219 44.9299 28.3119 45.0699C30.1119 45.7399 31.5119 47.4099 31.8419 49.3099C31.9619 49.9699 31.9619 50.6599 32.2519 51.2499C32.7019 52.1599 33.7219 52.6299 34.7019 52.9299C36.7119 53.5399 38.8519 53.6899 40.9319 53.3699C40.5219 54.5299 40.0719 55.9799 39.4519 57.0499L39.4419 57.0599Z" fill="#EBBCC3"/>
<path d="M43.9814 45.74C45.5414 44.79 46.9815 43.64 48.2515 42.33" stroke="#A17278" stroke-width="0.5" stroke-linecap="round" stroke-linejoin="round"/>
<path d="M31.9717 37.42C33.1117 37.9 34.4317 37.93 35.5817 37.51C36.7317 37.09 37.7217 36.2 38.2717 35.1" stroke="#A17278" stroke-width="0.5" stroke-linecap="round" stroke-linejoin="round"/>
<path d="M40.6318 53.37C41.9018 53.23 43.1518 52.88 44.3218 52.35" stroke="#A17278" stroke-width="0.5" stroke-linecap="round" stroke-linejoin="round"/>
<path d="M39.1816 57.26C40.7416 57.26 42.3016 56.95 43.7416 56.36" stroke="#A17278" stroke-width="0.5" stroke-linecap="round" stroke-linejoin="round"/>
<path d="M36.2217 66.3099C36.8517 67.0599 37.4717 67.7999 38.1017 68.5499" stroke="#A17278" stroke-width="0.5" stroke-linecap="round" stroke-linejoin="round"/>
<path d="M37.1719 60.63C38.9519 61.21 40.6419 62.08 42.1419 63.21" stroke="#A17278" stroke-width="0.5" stroke-linecap="round" stroke-linejoin="round"/>
</svg>
