<svg width="75" height="87" viewBox="0 0 75 87" fill="none" xmlns="http://www.w3.org/2000/svg">
<path d="M38.072 86.38C32.542 86.38 26.702 85.42 20.692 83.53C13.542 81.28 8.412 78.07 4.992 73.72C3.482 71.79 2.35199 69.57 1.64199 67.12C0.331994 62.59 0.421998 57.31 1.912 50.96C3.602 43.8 4.64199 36.85 5.75199 29.5C6.10199 27.16 6.46201 24.81 6.84201 22.43C8.97201 9.07996 19.872 0.459961 34.632 0.459961C35.742 0.459961 36.872 0.509961 37.992 0.619961C47.572 1.49996 56.422 5.52996 62.912 11.95C71.352 20.31 73.282 31.1 74.012 39.57C75.392 55.62 71.052 69.53 62.092 77.74C55.842 83.47 47.762 86.38 38.072 86.38Z" fill="#AE868B"/>
<path d="M38.0724 82.38C32.9524 82.38 27.5124 81.48 21.8924 79.72C15.5424 77.72 11.0424 74.95 8.14238 71.26C6.94238 69.74 6.05238 67.97 5.49238 66.02C4.37238 62.17 4.48239 57.55 5.81239 51.89C7.53239 44.57 8.59238 37.55 9.72238 30.11C10.0724 27.78 10.4324 25.44 10.8024 23.07C12.6024 11.77 21.9624 4.46997 34.6424 4.46997C35.6324 4.46997 36.6324 4.51997 37.6324 4.60997C46.2924 5.40997 54.2724 9.02997 60.1024 14.8C67.6224 22.24 69.3524 32.13 70.0224 39.92C71.3024 54.72 67.4224 67.43 59.3824 74.8C53.8924 79.84 46.7224 82.39 38.0724 82.39V82.38Z" fill="#EBBCC3"/>
<path d="M6.44175 65.74C5.19175 61.41 5.74174 56.53 6.78174 52.12C9.06174 42.42 10.2217 33.04 11.7817 23.23C13.8317 10.38 25.3617 4.48 37.5317 5.6C45.6317 6.35 53.5817 9.74999 59.3917 15.5C66.1017 22.14 68.2317 30.85 69.0217 39.99C70.0617 52.05 67.7818 65.72 58.7018 74.05C48.7118 83.21 34.1818 82.53 22.1818 78.76C17.3218 77.23 12.2117 74.83 8.91175 70.63C7.73175 69.13 6.93175 67.48 6.43175 65.73L6.44175 65.74Z" fill="#854951"/>
<path d="M38.0722 72.38C34.0322 72.38 29.4722 71.62 24.8922 70.18C20.5922 68.83 17.6022 67.11 16.0022 65.08C15.5922 64.56 15.2922 63.96 15.0922 63.24C14.4722 61.11 14.6322 58.07 15.5422 54.18C17.3622 46.46 18.5022 38.91 19.6022 31.6C19.9522 29.3 20.3022 26.98 20.6722 24.64C22.1722 15.2 31.7422 14.46 34.6322 14.46C35.3122 14.46 36.0122 14.49 36.7122 14.56C42.9722 15.14 48.9422 17.81 53.0722 21.9C57.1822 25.97 59.2822 31.61 60.0722 40.77C60.5522 46.3 60.7822 59.96 52.6422 67.42C49.0522 70.71 44.1522 72.38 38.0822 72.38H38.0722Z" fill="#78353E"/>
<path d="M5.23155 47.22C5.04155 44.38 5.42154 41.5 6.08154 38.27C6.07154 39.15 8.13155 40.64 9.07155 40.94C10.0116 41.24 11.0616 41.13 12.0116 40.87C12.9716 40.61 13.8616 40.22 14.8116 39.93C15.7516 39.65 16.7815 39.47 17.7515 39.68C19.0415 39.96 20.0516 40.88 20.6516 41.92C21.2416 42.97 21.4816 44.14 21.7016 45.29C21.8716 46.17 22.1015 47.14 22.9215 47.66C23.7015 48.16 24.7816 48.08 25.7016 47.83C26.6216 47.58 27.5016 47.18 28.4615 47.08C29.5115 46.97 30.6015 47.26 31.4215 47.86C32.2315 48.46 32.7516 49.35 32.8216 50.28C32.2516 50.29 31.6816 50.39 31.1516 50.57C31.0116 49.83 30.0416 49.34 29.1816 49.3C28.3216 49.27 27.5016 49.59 26.7616 49.97C26.0216 50.35 25.3016 50.79 24.4816 51.01C23.0416 51.41 21.4416 51.08 20.1516 50.39C18.8716 49.7 17.8616 48.67 16.9816 47.59C16.5116 47.01 16.0315 46.39 15.2815 46.12C14.4515 45.83 13.5015 46.05 12.7215 46.43C11.9415 46.81 11.2516 47.33 10.4516 47.67C8.79156 48.39 6.77155 48.11 5.24155 47.2L5.23155 47.22Z" fill="#AE868B"/>
<path d="M51.8519 28.58C49.0819 22.27 40.4519 20.05 34.1719 21.17C31.5719 21.63 29.0519 22.88 27.3919 24.94C25.7319 26.99 25.0419 29.9 25.9419 32.38C26.4819 33.87 28.2619 35.31 28.9519 36.73C29.7619 38.4 27.8619 39.91 28.5119 41.65C29.1719 43.4 31.6819 45.19 33.1319 46.38C34.5519 47.55 36.1019 47.72 37.6719 48.47C35.3419 48.82 32.9919 48.96 30.9319 50C30.8919 49.86 30.8519 49.73 30.8219 49.59C30.5419 48.38 30.3919 47.13 29.9819 45.95C29.7219 45.2 29.3319 44.45 28.6719 44C28.0419 43.57 27.1819 43.48 26.5019 43.82C25.8219 44.16 25.3619 44.93 25.4419 45.69C25.5319 46.46 26.1019 47.07 26.6119 47.64C27.5919 48.73 28.4719 49.91 29.2519 51.15C29.2119 51.19 29.1619 51.21 29.1219 51.25C27.3219 52.91 27.0819 55.35 26.7419 57.81C25.3819 56.08 24.2719 54.15 23.4819 52.09C23.1719 51.28 22.7919 50.35 21.9619 50.11C21.1819 49.89 20.3319 50.45 20.0519 51.21C19.7719 51.97 19.9619 52.83 20.3319 53.55C20.7019 54.27 21.2519 54.87 21.7519 55.51C23.2119 57.39 24.2119 59.56 25.1019 61.78C23.5419 61.93 20.8919 59.52 19.9119 60.32C18.5419 61.43 25.9819 66.25 26.9919 66.83C30.0919 68.6 34.8519 67.58 38.0019 65.9C41.1519 64.21 43.5519 61.41 45.5219 58.42C50.6619 50.64 55.8619 37.77 51.8319 28.57L51.8519 28.58Z" fill="#EBBCC3"/>
<path d="M38.6221 48.6199C40.6521 49.0299 42.7621 48.9999 44.7721 48.5399" stroke="#A17278" stroke-width="0.5" stroke-linecap="round" stroke-linejoin="round"/>
<path d="M31.2119 50.4999C31.6919 51.6999 32.4119 52.8099 33.3319 53.7299" stroke="#A17278" stroke-width="0.5" stroke-linecap="round" stroke-linejoin="round"/>
<path d="M29.4922 51.74C30.0422 52.75 30.5922 53.75 31.1422 54.76" stroke="#A17278" stroke-width="0.5" stroke-linecap="round" stroke-linejoin="round"/>
<path d="M31.6924 38.0999C32.5424 38.7499 33.6324 39.0599 34.6924 38.9599C35.7524 38.8599 36.7724 38.3499 37.4824 37.5499" stroke="#A17278" stroke-width="0.5" stroke-linecap="round" stroke-linejoin="round"/>
<path d="M27.4922 58.61L29.7822 60.34" stroke="#A17278" stroke-width="0.5" stroke-linecap="round" stroke-linejoin="round"/>
</svg>
