<svg width="91" height="116" viewBox="0 0 91 116" fill="none" xmlns="http://www.w3.org/2000/svg">
<path d="M37.1012 115.72C31.5412 115.72 26.4812 115.2 22.0712 114.17C7.61123 110.8 2.58123 102.57 0.901227 96.2598C-0.548773 90.8098 0.32122 85.3898 1.08122 80.5998C1.28122 79.3698 1.47122 78.1398 1.63122 76.9198C2.37122 71.0598 2.15122 65.0398 1.91122 58.6698C1.53122 48.6898 1.15122 38.3698 4.75122 28.4298C10.7112 11.9798 28.0412 0.0297852 45.9612 0.0297852C46.6412 0.0297852 47.3212 0.0497882 48.0112 0.0797882C62.1112 0.789788 73.5212 7.07978 81.0112 18.2598C93.2212 36.4798 92.2812 62.7298 85.9412 80.6598C77.9912 103.14 61.7212 115.26 38.8812 115.7C38.3012 115.71 37.7112 115.72 37.1112 115.72H37.1012Z" fill="#AE868B"/>
<path d="M37.1008 111.72C31.8508 111.72 27.0908 111.23 22.9708 110.27C12.9108 107.93 6.79082 102.87 4.76082 95.2298C3.53082 90.6098 4.29081 85.8398 5.03081 81.2298C5.23081 79.9598 5.44081 78.6898 5.60081 77.4198C6.39081 71.2298 6.14081 64.7698 5.91081 58.5198C5.55081 48.9198 5.17082 38.9998 8.51082 29.7898C13.9208 14.8598 29.6708 4.02979 45.9608 4.02979C46.5808 4.02979 47.1908 4.04979 47.8108 4.07979C60.6008 4.72979 70.9308 10.3998 77.6908 20.4898C89.1308 37.5598 88.1808 62.3398 82.1808 79.3298C74.8408 100.1 59.8408 111.29 38.8108 111.7C38.2608 111.71 37.6908 111.72 37.1208 111.72H37.1008Z" fill="#EBBCC3"/>
<path d="M23.2014 109.3C15.1714 107.43 7.95139 103.34 5.73139 94.9699C4.22139 89.3099 5.85139 83.3599 6.59139 77.5499C8.59139 61.7599 4.02138 45.0999 9.44138 30.1299C15.0114 14.7699 31.4214 4.2499 47.7414 5.0799C84.9914 6.9599 91.2414 50.6499 81.2214 78.9999C74.3114 98.5299 60.2214 110.29 38.7814 110.71C34.0114 110.8 28.4414 110.52 23.2114 109.31L23.2014 109.3Z" fill="#854951"/>
<path d="M37.1016 101.72C32.6116 101.72 28.6216 101.32 25.2416 100.53C15.9416 98.3598 14.8016 94.0698 14.4216 92.6598C13.7416 90.0898 14.3016 86.5498 14.9016 82.8098C15.1116 81.4798 15.3316 80.0998 15.5116 78.6798C16.4016 71.6798 16.1416 64.7998 15.8916 58.1398C15.5516 49.0998 15.2316 40.5598 17.9016 33.1898C21.9216 22.0798 33.7216 14.0198 45.9516 14.0198C46.4016 14.0198 46.8416 14.0298 47.2916 14.0498C56.9416 14.5398 64.3616 18.5698 69.3716 26.0398C77.4716 38.1298 78.8616 58.6698 72.7416 75.9798C66.8216 92.7098 55.3416 101.36 38.6116 101.69C38.1216 101.69 37.6216 101.7 37.1116 101.7L37.1016 101.72Z" fill="#78353E"/>
<path d="M44.591 71.5098C43.631 67.8998 40.151 65.5098 37.011 66.2898C34.951 66.7998 33.241 68.4398 31.771 70.2098C30.301 71.9798 28.971 73.9398 27.261 75.3798C25.551 76.8198 23.331 77.6998 21.331 76.9498C18.971 76.0598 17.601 73.2798 16.201 70.8798C14.801 68.4698 12.721 66.0298 10.271 66.4198C7.42095 66.8798 6.04096 70.5598 3.79096 72.6698C3.71096 69.7398 3.64096 66.8198 3.56096 63.8898C3.46096 59.8598 8.77096 58.0898 12.121 58.9098C15.471 59.7298 18.201 62.5298 20.521 65.4798C21.481 66.6998 22.4909 68.0298 23.861 68.4398C25.381 68.8898 26.971 68.0698 28.221 66.9498C29.471 65.8398 30.521 64.4198 31.821 63.3998C34.171 61.5498 37.311 61.1598 39.931 62.3898C42.561 63.6198 43.951 68.2598 44.591 71.5098Z" fill="#AE868B"/>
<path d="M51.2705 52.6098C48.8005 54.2698 45.8505 55.1498 42.8805 55.2598C41.2205 54.0198 39.7905 52.4798 38.7205 50.6998C39.4805 47.1898 34.3505 42.1898 30.9605 49.0398C30.9305 49.0998 30.9105 49.1698 30.9005 49.2398C30.7205 51.5098 32.4705 53.4398 34.1605 54.9698C36.1405 56.7698 38.2505 58.4998 40.4905 59.9798C40.9205 60.2698 41.4305 60.4298 41.9505 60.4398C45.2305 60.5298 48.5605 60.2098 51.6305 59.1198C51.5605 57.1198 51.3405 54.5998 51.2705 52.5998V52.6098Z" fill="#CBA0A6"/>
<path d="M40.5411 72.4098C37.0611 72.1198 33.5311 73.2998 30.8011 75.4698C30.4611 75.7398 30.2211 76.1198 30.1211 76.5498C29.7611 78.1598 29.6811 79.8398 29.9411 81.4698C30.2111 83.2398 30.8011 85.1998 29.8311 86.6998C29.3811 87.4098 28.6411 87.8798 28.0711 88.4998C27.5011 89.1198 27.0811 90.0398 27.4611 90.7898C27.9211 91.7298 29.2111 91.7898 30.2511 91.7198C31.8511 91.6198 33.4811 91.4998 34.9611 90.9098C36.4511 90.3098 37.7911 89.1298 38.1611 87.5798C38.5711 85.8698 37.7711 84.1398 37.1211 82.5098C36.8411 81.8098 36.6011 81.0598 36.4811 80.3098C39.8111 79.4498 43.6011 80.3098 46.9211 79.1998C45.6311 76.4198 43.5911 72.6698 40.5311 72.4198L40.5411 72.4098Z" fill="#CBA0A6"/>
<path d="M65.9412 39.4098C65.3912 33.1298 64.3312 25.2698 59.7712 20.9098C56.0712 17.3598 50.4512 16.1198 45.4712 17.3298C40.4912 18.5498 36.2212 22.0598 33.6412 26.4898C32.0612 29.2198 31.0712 32.3598 31.2912 35.5098C31.5112 38.6598 33.0512 41.7798 35.6812 43.5198C37.1812 44.5098 38.9712 45.0298 40.3812 46.1398C41.3712 46.9198 42.1212 48.1798 42.1512 49.3798C42.1712 50.2398 42.7512 50.9898 43.6112 51.0398C45.0712 51.1298 46.4112 50.4198 47.5812 51.2298C49.3112 52.4298 52.1012 52.7198 53.3012 50.9898C48.4712 54.6098 44.4812 59.4798 41.4212 64.6798C38.3712 69.8798 36.9012 76.2198 38.3912 82.0598C39.0312 84.5498 40.2512 86.9698 42.2912 88.5298C45.1712 90.7198 49.2812 90.7898 52.6412 89.4398C56.0012 88.0898 58.7312 85.5298 61.0912 82.7798C66.3612 76.6298 70.2312 69.1198 71.2912 61.0898C72.3512 53.0598 71.0112 45.7298 65.9312 39.4098H65.9412Z" fill="#EBBCC3"/>
<path d="M45.8711 89.7398C41.8911 88.9198 38.7211 85.4798 34.6711 85.1398C32.9211 84.9898 31.4111 86.2598 30.2311 87.5598C29.0511 88.8598 27.8511 90.3398 26.1411 90.7298C24.5811 91.0798 22.9311 90.3898 21.7411 89.3198C20.5511 88.2498 19.7311 86.8298 18.9311 85.4498C18.4111 84.5398 17.9011 83.3598 18.5411 82.5298C19.0511 81.8598 20.0611 81.8298 20.8711 82.0698C21.6811 82.3098 22.4311 82.7598 23.2611 82.8598C25.0411 83.0698 26.5411 81.6798 28.0111 80.6598C32.6011 77.4498 39.2011 77.4598 43.7811 80.6698C46.2911 82.4298 46.1611 86.6898 45.8811 89.7498L45.8711 89.7398Z" fill="#EBBCC3"/>
<path d="M43.2715 46.1999C44.4715 46.3399 45.7115 45.9499 46.6215 45.1599C47.5315 44.3699 48.0815 43.1799 48.1015 41.9799" stroke="#A17278" stroke-width="0.5" stroke-linecap="round" stroke-linejoin="round"/>
<path d="M54.9014 34.0099C55.0214 33.2899 55.3114 32.5799 55.8214 32.0599C56.3314 31.5299 57.0714 31.2099 57.7914 31.2999C58.5114 31.3899 59.1414 31.8899 59.5214 32.5099C59.9014 33.1299 60.0614 33.8599 60.1214 34.5899C60.2114 35.6399 60.0914 36.6999 59.7914 37.6999C59.5814 38.3999 59.2414 39.1099 58.6214 39.5099C58.0014 39.8999 57.0514 39.8399 56.6714 39.2099" stroke="#A17278" stroke-width="0.5" stroke-linecap="round" stroke-linejoin="round"/>
<path d="M54.4014 50.8698C57.1614 50.4698 59.7314 48.8698 61.3114 46.5798" stroke="#A17278" stroke-width="0.5" stroke-linecap="round" stroke-linejoin="round"/>
<path d="M49.1309 56.5998C51.1609 56.2298 53.1409 55.5898 55.0009 54.6998" stroke="#A17278" stroke-width="0.5" stroke-linecap="round" stroke-linejoin="round"/>
<path d="M44.0615 63.2298C46.8415 63.2198 49.6115 62.7398 52.2415 61.8298" stroke="#A17278" stroke-width="0.5" stroke-linecap="round" stroke-linejoin="round"/>
<path d="M39.5811 78.7699C42.3911 79.2299 45.1011 80.3299 47.4411 81.9599" stroke="#A17278" stroke-width="0.5" stroke-linecap="round" stroke-linejoin="round"/>
<path d="M50.8612 54.8398C46.1212 58.4298 39.3312 59.0898 33.9912 56.4598C33.2312 54.4498 30.4112 53.1498 28.4612 54.0398C26.5112 54.9298 25.6212 57.5998 26.6412 59.4898C27.7312 61.4898 30.2412 62.1598 32.5012 62.5198C38.8812 63.5698 45.6512 63.8198 51.6112 61.3198C51.4212 59.3198 51.0612 56.8298 50.8612 54.8298V54.8398Z" fill="#EBBCC3"/>
</svg>
