<svg width="103" height="127" viewBox="0 0 103 127" fill="none" xmlns="http://www.w3.org/2000/svg">
<path d="M53.531 126.43C50.761 126.43 48.001 126.15 45.351 125.59C32.451 122.87 18.241 111.94 17.321 97.0401C17.201 95.1801 17.221 93.4601 17.241 91.7901C17.271 88.7401 17.301 86.1001 16.481 83.3801C15.011 78.5101 12.721 73.8501 10.301 68.9201C9.15097 66.5801 7.96098 64.1501 6.87098 61.7101C0.100977 46.5401 -1.30902 34.1301 2.56098 23.7601C6.69098 12.6901 17.131 4.1701 29.801 1.5101C32.751 0.890101 35.821 0.580078 38.951 0.580078C47.051 0.580078 55.631 2.6901 63.761 6.6701C89.971 19.5201 106.091 49.8301 102.101 78.7401C100.131 92.9901 93.761 105.64 84.141 114.34C75.651 122.03 64.491 126.43 53.531 126.43Z" fill="#AE868B"/>
<path d="M53.5305 122.43C51.0305 122.43 48.5605 122.18 46.1805 121.67C34.5605 119.22 22.0905 109.24 21.3205 96.7901C21.2105 95.0701 21.2305 93.4201 21.2505 91.8301C21.2905 88.5901 21.3205 85.5301 20.3205 82.2201C18.7605 77.0401 16.2905 72.0101 13.9005 67.1501C12.7605 64.8401 11.5905 62.4501 10.5305 60.0701C4.21054 45.9101 2.83055 34.4901 6.31055 25.1501C9.97055 15.3601 19.2805 7.7901 30.6305 5.4201C33.3105 4.8601 36.1105 4.58008 38.9605 4.58008C46.4505 4.58008 54.4205 6.55008 62.0105 10.2701C86.7105 22.3801 101.911 50.9501 98.1505 78.2001C96.3105 91.5201 90.3905 103.31 81.4705 111.38C73.7105 118.41 63.5305 122.44 53.5505 122.44L53.5305 122.43Z" fill="#EBBCC3"/>
<path d="M11.4414 59.6701C6.64141 48.9201 3.13141 36.5401 7.25141 25.5101C10.9414 15.6201 20.5014 8.57008 30.8314 6.41008C41.1614 4.25008 52.0814 6.52009 61.5614 11.1701C85.7914 23.0501 100.841 51.3301 97.1514 78.0701C95.4614 90.3601 89.9814 102.32 80.7914 110.65C71.5914 118.97 58.5314 123.27 46.3914 120.71C35.2414 118.36 23.0714 108.84 22.3214 96.7501C22.0014 91.5901 22.8314 87.0801 21.2814 81.9601C18.9514 74.2201 14.7314 67.0401 11.4414 59.6901V59.6701Z" fill="#854951"/>
<path d="M53.5314 112.43C51.7314 112.43 49.9514 112.25 48.2414 111.89C40.4214 110.24 31.7514 103.53 31.3014 96.1801C31.2214 94.8201 31.2314 93.4301 31.2514 91.9501C31.2914 88.2801 31.3315 84.1201 29.9015 79.3501C28.1015 73.3901 25.4514 67.9801 22.8814 62.7601C21.7314 60.4201 20.6514 58.2201 19.6614 56.0101C14.4614 44.3701 13.1615 35.4201 15.6815 28.6601C18.1115 22.1501 24.7815 16.8701 32.6815 15.2201C34.6815 14.8001 36.8015 14.5901 38.9615 14.5901C44.9314 14.5901 51.3814 16.2001 57.6014 19.2501C78.2014 29.3501 91.3714 54.1101 88.2414 76.8301C86.7215 87.8301 81.9314 97.4701 74.7514 103.96C68.8014 109.34 61.0714 112.43 53.5415 112.43H53.5314Z" fill="#78353E"/>
<path d="M61.611 56.9001C59.341 61.8801 55.301 65.9301 50.471 68.4901C47.361 67.6501 44.411 66.2302 41.861 64.2302C42.701 63.7202 43.241 62.4602 43.271 61.4802C43.291 60.5002 42.791 59.5202 41.971 58.9802C41.331 57.1302 39.381 55.8301 37.431 55.8401C35.481 55.8501 33.601 57.2001 32.981 59.0601C32.491 60.5301 32.751 62.1701 33.421 63.5601C34.091 64.9501 35.141 66.1301 36.241 67.2101C39.971 70.8701 44.431 73.5801 49.261 75.5501C50.621 76.1101 52.141 76.1701 53.551 75.7701C58.251 74.4401 62.831 72.4902 67.131 70.2302C66.201 65.7802 63.6311 60.9701 61.591 56.9001H61.611Z" fill="#CBA0A6"/>
<path d="M46.541 98.4401C45.871 95.9401 44.671 94.0001 43.951 91.5401C44.111 91.6101 44.271 91.6701 44.411 91.7301C49.521 93.9301 52.581 94.1901 57.691 96.3901C56.131 91.8601 58.031 86.7301 53.641 84.8001C49.761 83.1001 45.751 81.3801 41.521 81.3001C39.961 81.2701 38.391 81.3701 36.941 81.7001C35.551 82.0101 34.401 83.0001 33.901 84.3301C33.561 85.2401 33.411 86.2401 33.511 87.3301C33.691 89.2301 34.871 92.0901 35.681 93.8101C36.501 95.5301 38.021 98.4301 38.161 100.32C37.211 100.55 36.231 100.73 35.391 101.22C34.551 101.71 33.821 102.48 33.631 103.44C33.361 104.8 34.271 106.18 35.481 106.85C36.691 107.51 38.141 107.59 39.521 107.5C41.381 107.38 43.221 106.98 44.971 106.34C45.831 106.02 46.721 105.6 47.241 104.85C47.881 103.94 47.851 102.71 47.601 101.63C47.351 100.55 46.821 99.5301 46.531 98.4501L46.541 98.4401Z" fill="#CBA0A6"/>
<path d="M18.1211 81.0001C18.8611 83.6701 19.6011 86.3401 20.3411 89.0101C20.7611 86.3801 22.0211 84.0901 23.4111 82.6601C24.8011 81.2301 26.5111 80.7301 28.1011 81.2901C30.4511 82.1101 32.4611 85.1001 34.8511 85.2401C37.2111 85.3801 39.2811 82.7201 41.0011 80.0001C42.7211 77.2801 44.4411 74.2201 46.7311 73.2101C48.9111 72.2501 51.2111 73.3401 53.3311 74.6101C55.4511 75.8901 57.6111 77.3901 59.8611 77.2501C59.8011 76.3301 59.8411 75.3701 59.9611 74.4601C57.8211 74.5401 55.7711 73.1301 53.8811 71.4601C51.9911 69.7901 50.1811 67.8101 48.1811 66.5301C46.1811 65.2501 43.9111 64.7301 41.9211 66.0701C39.1311 67.9401 37.2811 73.1701 34.3111 73.8301C32.5611 74.2201 30.8511 72.8801 29.1111 72.3301C24.9211 71.0101 20.0411 74.6101 18.1211 81.0001Z" fill="#AE868B"/>
<path d="M62.2508 36.7701C60.4208 30.6901 58.3008 24.5801 54.6008 19.4201C43.2208 3.52012 19.9708 8.36011 13.6408 26.4101C11.7008 31.9501 11.9608 38.3201 14.7508 43.4901C17.5408 48.6601 22.9208 52.4401 28.7808 52.9101C30.1908 53.0201 31.7408 52.9901 32.8608 53.8701C33.5808 54.4401 33.9909 55.3001 34.4608 56.1001C34.9308 56.8901 35.5508 57.6801 36.4408 57.9201C37.3308 58.1601 39.0608 57.4501 39.0008 56.5401C40.2808 58.4201 43.0908 59.3301 45.1108 58.2801C47.5908 59.5301 50.8409 59.0701 52.8709 57.1701C56.7909 69.3201 58.5909 82.3501 59.2909 95.1001C59.4608 98.2401 60.0809 100.98 62.3109 103.19C64.5409 105.4 67.7308 106.61 70.8608 106.43C74.0608 106.24 77.0708 104.66 79.4108 102.46C81.7408 100.26 83.4508 97.4801 84.8308 94.5801C88.3408 87.2301 89.8609 78.9401 89.2009 70.8201C88.5709 63.0901 85.9208 55.4401 81.1008 49.3501C76.2808 43.2701 69.9408 37.8301 62.2508 36.7701Z" fill="#EBBCC3"/>
<path d="M65.3407 98.8101C64.0507 93.9901 62.3507 88.5301 60.9407 83.7401C57.8807 82.1801 55.6007 81.1401 53.1607 79.4701C50.7207 77.7901 48.0307 76.2501 45.0707 76.0501C42.1107 75.8501 38.8607 77.3601 37.9107 80.1601C37.3807 81.7301 37.6307 83.4901 38.2907 85.0201C38.9407 86.5501 39.9707 87.8801 41.0307 89.1701C44.8407 93.8201 49.1107 98.0601 53.3707 102.3C52.1007 102.48 50.7907 103.23 49.7107 103.92C48.6307 104.61 47.8407 105.94 48.2007 107.18C48.5907 108.54 50.1507 109.22 51.5607 109.33C54.0307 109.53 56.4407 108.57 58.6707 107.48C60.1507 106.76 61.7307 105.82 62.2207 104.25C62.4007 103.68 62.4007 103.07 62.2907 102.48C62.6207 102.61 62.9507 102.71 63.3507 102.7C64.0707 102.69 64.8307 102.42 65.2607 101.83C65.8807 100.99 65.6307 99.8201 65.3607 98.8101H65.3407Z" fill="#EBBCC3"/>
<path d="M61.5106 52.3401C57.2806 61.6401 46.8506 67.7301 36.6706 66.8401C37.1006 65.9601 36.8606 64.6001 36.3406 63.7701C35.8206 62.9401 34.8606 62.4001 33.8806 62.3901C32.3406 61.1901 29.9906 61.1701 28.3606 62.2501C26.7306 63.3301 25.9006 65.4901 26.4006 67.3801C26.7906 68.8801 27.9106 70.1101 29.2406 70.9101C30.5606 71.7101 32.0806 72.1201 33.6006 72.4201C44.9706 74.6801 56.7706 71.0701 67.0406 65.6801C66.1106 61.2301 63.5406 56.4201 61.5006 52.3501L61.5106 52.3401Z" fill="#EBBCC3"/>
<path d="M42.35 33.5801C41.45 32.2601 42.04 30.2601 43.4 29.4101C44.76 28.5601 46.6 28.7601 47.94 29.6401C49.28 30.5201 50.15 31.9701 50.65 33.5001C51.14 35.0101 51.29 36.6401 50.94 38.1801C50.8 38.7901 50.57 39.4101 50.1 39.8401C49.64 40.2601 48.89 40.4301 48.37 40.0901" stroke="#A17278" stroke-width="0.5" stroke-linecap="round" stroke-linejoin="round"/>
<path d="M45.2308 32.5001C44.8108 33.2801 45.2108 34.3901 45.9608 34.8601C46.4708 34.8601 46.9408 35.2601 47.0408 35.7601C47.1408 36.2601 46.8608 36.8001 46.3908 37.0101C46.9408 37.3901 47.4908 37.8201 48.1308 38.0201" stroke="#A17278" stroke-width="0.5" stroke-linecap="round" stroke-linejoin="round"/>
<path d="M35.6504 51.0501C36.9404 50.6601 38.0704 49.7401 38.7104 48.5501C39.3504 47.3601 39.4904 45.9101 39.0904 44.6201" stroke="#A17278" stroke-width="0.5" stroke-linecap="round" stroke-linejoin="round"/>
<path d="M60.2207 83.7401C63.5107 85.4801 66.8107 87.2101 70.1007 88.9501" stroke="#A17278" stroke-width="0.5" stroke-linecap="round" stroke-linejoin="round"/>
<path d="M50.7803 86.7601C54.1603 89.4601 57.8503 92.6301 61.0403 95.5601" stroke="#A17278" stroke-width="0.5" stroke-linecap="round" stroke-linejoin="round"/>
<path d="M55.1406 60.7701C57.7106 58.2601 59.9806 55.4301 61.8806 52.3801" stroke="#A17278" stroke-width="0.5" stroke-linecap="round" stroke-linejoin="round"/>
<path d="M57.3701 69.9901C60.7501 69.3301 63.9601 67.8201 66.6101 65.6301" stroke="#A17278" stroke-width="0.5" stroke-linecap="round" stroke-linejoin="round"/>
</svg>
