<svg width="81" height="108" viewBox="0 0 81 108" fill="none" xmlns="http://www.w3.org/2000/svg">
<path d="M34.4816 107.01C22.0216 107.01 7.11158 102.55 2.59158 90.0301C0.301576 83.6801 1.54158 77.2401 2.64158 71.5701C3.11158 69.1601 3.55158 66.8801 3.73158 64.6901C4.17158 59.3901 3.11158 53.9601 1.99158 48.2001C1.64158 46.4201 1.30158 44.6401 0.991576 42.8601C-0.198424 35.8701 -1.22842 25.5601 3.62158 16.8101C8.37158 8.24012 18.4016 2.38013 30.4416 1.13013C32.1116 0.960127 33.8116 0.870117 35.4816 0.870117C45.9016 0.870117 55.5916 4.18012 62.7616 10.1901C70.0416 16.2901 75.2916 25.5101 78.3916 37.6101C82.6816 54.3801 81.3916 70.5901 74.7616 83.2501C67.8416 96.4601 55.1116 105.01 39.8416 106.72C38.1216 106.91 36.3216 107.01 34.4916 107.01H34.4816Z" fill="#AE868B"/>
<path d="M34.4816 103.01C23.3816 103.01 10.1716 99.2401 6.35161 88.6701C4.43161 83.3501 5.51161 77.7501 6.56161 72.3301C7.03161 69.9201 7.51161 67.4301 7.71161 65.0201C8.20161 59.1701 7.03161 53.2001 5.91161 47.4301C5.57161 45.6801 5.23161 43.9301 4.93161 42.1801C3.84161 35.7801 2.87161 26.3901 7.11161 18.7501C11.2316 11.3301 20.1016 6.23012 30.8516 5.11012C32.3816 4.95012 33.9416 4.87012 35.4816 4.87012C44.9616 4.87012 53.7416 7.85012 60.1916 13.2601C66.8116 18.8101 71.6316 27.3301 74.5116 38.6001C78.5516 54.4101 77.3816 69.6101 71.2116 81.4001C64.9216 93.4101 53.3216 101.19 39.3916 102.75C37.8216 102.92 36.1716 103.01 34.4816 103.01Z" fill="#EBBCC3"/>
<path d="M7.29115 88.3302C4.63115 80.9502 8.06115 72.9202 8.71115 65.1002C9.35115 57.3502 7.22115 49.6802 5.92115 42.0202C4.61115 34.3502 4.22115 26.0402 7.99115 19.2402C12.4412 11.2202 21.8312 7.06017 30.9611 6.11017C41.0711 5.06017 51.7711 7.50017 59.5611 14.0302C66.9612 20.2302 71.1611 29.5002 73.5611 38.8602C77.1311 52.8002 77.0211 68.1902 70.3512 80.9402C64.1112 92.8702 52.5412 100.28 39.3012 101.76C28.3412 102.98 11.5512 100.07 7.31115 88.3402L7.29115 88.3302Z" fill="#854951"/>
<path d="M34.4813 93.0101C26.8113 93.0101 17.6713 90.5901 15.7513 85.2701C14.7713 82.5401 15.5113 78.6901 16.3813 74.2201C16.9013 71.5501 17.4313 68.7901 17.6813 65.8401C18.2813 58.6101 16.9813 51.9501 15.7313 45.5101C15.4013 43.8401 15.0813 42.1701 14.7913 40.4901C13.4613 32.6801 13.8013 27.3101 15.8613 23.5901C18.8413 18.2101 26.0913 15.6501 31.8813 15.0501C33.0713 14.9301 34.2813 14.8601 35.4813 14.8601C42.6213 14.8601 49.1113 17.0101 53.7713 20.9101C58.7513 25.0801 62.4713 31.8701 64.8313 41.0701C68.2613 54.4801 67.3813 67.1501 62.3613 76.7501C57.6413 85.7701 48.8613 91.6201 38.2913 92.8001C37.0913 92.9301 35.8113 93.0001 34.4913 93.0001L34.4813 93.0101Z" fill="#78353E"/>
<path d="M45.6924 53.3601C42.1924 54.5201 38.1124 53.7401 35.2824 51.3601C35.0024 50.3001 34.7624 49.0401 34.0724 48.1901C33.3724 47.3401 32.2624 46.7501 31.1724 46.9501C29.7524 47.2101 28.8824 48.6901 28.5424 50.0901C28.3424 50.9101 28.2624 51.7901 28.5624 52.5801C28.9124 53.4901 29.7024 54.1401 30.5124 54.6801C33.9024 56.9501 38.1024 57.9801 42.1524 57.5301C43.4024 56.3801 44.6324 54.6801 45.6924 53.3501V53.3601Z" fill="#CBA0A6"/>
<path d="M43.5715 69.6901C42.3915 67.6201 40.0015 66.5901 37.7415 65.8401C36.0915 65.2901 34.4015 64.8101 32.6715 64.7401C30.9415 64.6701 29.1315 65.0601 27.7515 66.1001C26.6515 66.9301 25.6515 68.2101 24.2815 68.1301C23.0715 68.0601 22.0415 66.9101 20.8515 67.1201C19.8515 67.3001 19.2615 68.4401 19.3715 69.4501C19.4815 70.4601 20.1115 71.3301 20.7815 72.0901C21.7515 73.1801 22.8915 74.1701 24.2515 74.7101C25.6115 75.2501 27.2215 75.3001 28.4915 74.5801C29.4715 74.0301 30.2315 73.0601 31.3315 72.7801C32.8015 72.4001 34.2215 73.3901 35.5415 74.1201C38.5815 75.7801 43.5915 77.0701 47.1215 76.3901C46.4115 74.5801 44.5215 71.3901 43.5615 69.6901H43.5715Z" fill="#CBA0A6"/>
<path d="M39.732 67.3801C37.782 68.4701 35.332 67.6501 34.002 65.4701C33.232 64.2201 32.842 62.6501 32.262 61.2301C31.682 59.8101 30.802 58.4401 29.602 58.1801C28.142 57.8601 26.802 59.2901 25.892 60.8401C24.822 62.6601 24.052 64.7701 22.952 66.5501C21.852 68.3301 20.262 69.8101 18.532 69.6901C16.802 69.5601 15.352 67.8801 13.652 67.4001C12.412 67.0501 11.112 67.3601 9.93195 67.9801C8.75195 68.6101 7.68195 69.7601 6.62195 70.6801C6.02195 68.2801 5.64195 65.7801 5.50195 63.2601C8.18195 61.4501 11.482 61.2601 14.252 62.8101C15.852 63.7101 17.532 65.1801 19.182 64.4501C19.972 64.1001 20.592 63.2901 21.152 62.4801C22.272 60.8901 23.302 59.1801 24.522 57.7301C25.752 56.2901 27.212 55.1001 28.822 54.8001C30.442 54.5001 32.222 55.2101 33.202 56.9601C33.982 58.3501 34.172 60.1901 34.912 61.6201C36.062 63.8401 38.572 64.5501 40.292 63.1401C39.972 64.4301 40.052 66.0901 39.732 67.3801Z" fill="#AE868B"/>
<path d="M55.7518 42.2801C59.8518 47.0601 61.6318 53.5601 61.4418 59.8601C61.2518 66.1601 59.2318 72.2901 56.4518 77.9501C55.5418 79.8001 54.4918 81.6801 52.8118 82.8801C49.5518 85.1901 44.7018 84.1001 41.9318 81.2201C39.1518 78.3401 38.1318 74.1701 38.0418 70.1701C37.8818 63.3001 40.2118 56.4001 44.5018 51.0401C43.1818 51.5601 42.0218 51.6601 40.6118 51.4801C39.2118 51.3001 37.8218 50.1501 37.9018 48.7401C37.0118 48.8901 36.3218 48.3401 35.8618 47.5601C35.4118 46.7801 35.2118 45.8801 34.7918 45.0801C33.6218 42.8401 31.0118 41.8001 29.2018 40.0301C26.8218 37.6801 25.9818 34.0001 26.7518 30.7501C27.5218 27.5001 29.7618 24.6901 32.5718 22.8801C38.1718 19.2501 46.0918 19.6901 51.2618 23.9201C56.4218 28.1401 58.1918 36.0801 55.7518 42.2901V42.2801Z" fill="#EBBCC3"/>
<path d="M45.5821 51.9701C43.3721 54.9301 39.5721 56.6101 35.9021 56.2701C35.0621 55.5601 34.1521 54.6601 33.0921 54.3601C32.0321 54.0601 30.7821 54.2201 30.0121 55.0001C28.9921 56.0301 29.1221 57.7301 29.6421 59.0801C29.9521 59.8701 30.3921 60.6401 31.0821 61.1101C31.8821 61.6601 32.9121 61.7401 33.8821 61.7201C37.9621 61.6501 41.9921 60.1001 45.0621 57.4201C45.4321 55.7601 45.4721 53.6701 45.5821 51.9701Z" fill="#EBBCC3"/>
<path d="M45.7018 77.6701C44.3618 75.7001 41.8918 74.8801 39.5718 74.3201C37.8818 73.9101 36.1618 73.5701 34.4218 73.6501C32.6918 73.7301 30.9218 74.2601 29.6318 75.4201C28.6018 76.3401 27.7218 77.7001 26.3418 77.7401C25.1318 77.7701 24.0118 76.7101 22.8418 77.0201C21.8618 77.2801 21.3718 78.4701 21.5618 79.4701C21.7518 80.4701 22.4518 81.2801 23.1918 81.9801C24.2518 82.9901 25.4718 83.8801 26.8718 84.3001C28.2718 84.7201 29.8818 84.6401 31.0918 83.8201C32.0218 83.1901 32.7018 82.1601 33.7718 81.7901C35.2018 81.2901 36.7018 82.1601 38.0818 82.7701C41.2518 84.1701 46.3518 85.0401 49.8118 84.0701C48.9518 82.3201 46.8018 79.3001 45.7118 77.6901L45.7018 77.6701Z" fill="#EBBCC3"/>
<path d="M37.4824 43.7801C39.7524 44.5801 42.5024 43.7801 43.9824 41.8801" stroke="#A17278" stroke-width="0.5" stroke-linecap="round" stroke-linejoin="round"/>
<path d="M43.3926 54.8901C45.0626 54.4001 46.6426 53.5801 48.0026 52.4801" stroke="#A17278" stroke-width="0.5" stroke-linecap="round" stroke-linejoin="round"/>
<path d="M41.6221 60.2101C44.0421 59.7801 46.3721 58.87 48.4521 57.55" stroke="#A17278" stroke-width="0.5" stroke-linecap="round" stroke-linejoin="round"/>
<path d="M48.9727 38.1101C48.9727 37.3201 49.8527 36.7101 50.6327 36.8301C51.4127 36.9501 52.0327 37.6201 52.2627 38.3801C52.4927 39.1401 52.3827 39.9601 52.1527 40.7201C51.9727 41.3301 51.7027 41.9501 51.1927 42.3301C50.6927 42.7201 49.9027 42.8001 49.4427 42.3601" stroke="#A17278" stroke-width="0.5" stroke-linecap="round" stroke-linejoin="round"/>
<path d="M40.4424 74.4701C42.3524 75.1601 44.3324 75.6601 46.3424 75.9801" stroke="#A17278" stroke-width="0.5" stroke-linecap="round" stroke-linejoin="round"/>
</svg>
