<svg width="99" height="135" viewBox="0 0 99 135" fill="none" xmlns="http://www.w3.org/2000/svg">
<path d="M39.7413 134.64C31.4713 134.64 23.3013 132.39 16.7413 128.3C8.13129 122.94 2.49128 114.59 0.861281 104.78C-0.668719 95.5899 1.5213 86.8499 3.6313 78.3799C4.9713 72.9899 6.24128 67.8999 6.58128 62.8199C6.89128 58.1199 6.39128 53.3699 5.86128 48.3299C5.59128 45.7399 5.31129 43.0599 5.15129 40.3699C4.50129 29.6699 6.19129 21.3799 10.3413 15.0199C16.3813 5.74993 27.2513 0.429932 40.1413 0.429932C46.9013 0.429932 53.6313 1.87992 59.6013 4.60992C73.9913 11.1999 86.0913 24.9099 92.8013 42.2099C100.651 62.4699 100.331 83.8599 91.9313 100.9C83.9013 117.18 66.9713 130.07 48.7913 133.73C45.8313 134.33 42.7813 134.63 39.7313 134.63L39.7413 134.64Z" fill="#AE868B"/>
<path d="M39.7414 130.64C32.2114 130.64 24.7914 128.6 18.8614 124.91C11.1314 120.09 6.27145 112.91 4.81145 104.13C3.42145 95.7599 5.50143 87.4199 7.51143 79.3599C8.84143 74.0399 10.2114 68.5299 10.5714 63.0899C10.9014 58.0599 10.3614 52.91 9.84145 47.92C9.58145 45.37 9.30144 42.74 9.14144 40.14C8.54144 30.33 10.0315 22.8299 13.6915 17.2199C18.9815 9.09994 28.6214 4.43994 40.1414 4.43994C46.2414 4.43994 52.5615 5.79995 57.9415 8.25995C71.4015 14.4199 82.7414 27.33 89.0714 43.67C96.5114 62.89 96.2514 83.11 88.3514 99.14C80.8514 114.35 65.0214 126.39 48.0114 129.82C45.3114 130.36 42.5314 130.64 39.7414 130.64Z" fill="#EBBCC3"/>
<path d="M19.3814 124.05C12.4714 119.75 7.29142 113 5.79142 103.96C3.53142 90.3299 10.6614 76.9399 11.5614 63.1499C12.0614 55.4499 10.6014 47.7699 10.1314 40.0699C9.66144 32.3699 10.3114 24.2099 14.5214 17.7499C23.5714 3.8599 43.6814 2.81991 57.5214 9.15991C71.9214 15.7599 82.5114 29.5099 88.1314 44.0199C94.9014 61.5099 95.7414 81.8699 87.4414 98.6899C80.0214 113.74 64.3514 125.5 47.8014 128.83C38.0514 130.79 27.5114 129.12 19.3714 124.05H19.3814Z" fill="#854951"/>
<path d="M39.7412 120.64C34.0512 120.64 28.5112 119.14 24.1412 116.42C20.5012 114.15 15.9012 109.89 14.6712 102.49C13.6212 96.1699 15.3712 89.1799 17.2112 81.7799C18.6412 76.0299 20.1311 70.0799 20.5411 63.7399C20.9211 57.8599 20.3412 52.28 19.7812 46.89C19.5112 44.34 19.2612 41.9199 19.1212 39.5299C18.6612 31.9399 19.6211 26.4299 22.0711 22.6799C26.7411 15.5099 35.4012 14.4399 40.1512 14.4399C44.9012 14.4399 49.6912 15.4699 53.7812 17.3499C64.8912 22.4399 74.3512 33.3499 79.7512 47.2799C86.1912 63.8999 86.0512 81.1899 79.3812 94.7199C73.3012 107.06 59.9011 117.23 46.0411 120.02C43.9911 120.43 41.8712 120.64 39.7412 120.64Z" fill="#78353E"/>
<path d="M46.1813 75.2699C45.2913 72.6199 45.2213 69.6299 43.9113 67.1599C42.5913 68.4399 40.9813 68.9999 39.2613 69.6399C37.5413 70.2799 35.8813 70.7499 33.9013 70.6699C31.8413 70.5099 30.2813 69.3999 29.3513 67.8199C29.9413 67.3899 29.7813 66.6799 29.5413 65.9899C29.1313 64.7999 28.1213 63.8299 26.9213 63.4599C25.7213 63.0899 24.3413 63.3199 23.3313 64.0699C22.1313 64.1399 21.0113 64.8599 20.2213 65.7699C19.4313 66.6799 19.0213 67.9199 19.1213 69.1199C19.5613 74.7299 27.4313 77.7699 32.7913 77.8699C38.1513 77.9799 42.3813 77.9899 46.1913 75.2599L46.1813 75.2699Z" fill="#CBA0A6"/>
<path d="M43.541 81.11C42.591 78.51 41.511 75.95 40.031 73.99C38.551 72.03 36.601 70.71 34.641 70.96C32.381 71.25 30.451 73.51 28.791 75.85C27.131 78.19 25.501 80.77 23.371 81.98C21.641 82.96 19.671 82.92 17.961 81.88C16.711 81.11 15.621 79.85 14.461 78.82C13.301 77.79 11.971 76.96 10.631 77.21C8.75105 77.56 7.30104 79.89 6.28104 82.3C5.62104 79.46 5.30103 76.44 5.33103 73.43C6.35103 71.06 8.01103 69.1 9.83103 68.4C11.651 67.7 13.641 68.08 15.291 69.43C16.611 70.51 17.681 72.15 18.891 73.47C20.101 74.79 21.601 75.82 23.071 75.39C24.291 75.03 25.301 73.73 26.101 72.3C26.911 70.87 27.581 69.26 28.491 67.97C30.901 64.53 34.751 63.91 37.801 65.88C40.851 67.85 43.121 72.07 44.271 76.78C43.931 78.12 43.861 79.77 43.521 81.11H43.541Z" fill="#AE868B"/>
<path d="M49.7811 99.54C46.4511 94.08 41.2911 89.74 35.3411 87.4C33.7611 86.78 32.0811 86.29 30.3911 86.37C28.6911 86.46 26.9611 87.2 26.0211 88.62C24.7911 90.48 25.1711 92.95 25.8611 95.07C27.3811 99.72 30.1011 103.82 33.1611 107.68C32.8011 107.62 32.4311 107.57 32.0711 107.54C30.9911 107.45 29.8711 107.49 28.8611 107.87C27.8411 108.25 26.9311 109.01 26.5511 110.03C26.1011 111.23 26.4711 112.62 27.2211 113.66C27.9711 114.7 29.0611 115.44 30.1711 116.08C32.7611 117.56 36.4011 119.64 39.4011 118.24C40.2211 117.86 40.9211 117.22 41.3611 116.44C43.8411 114.66 46.6711 107.83 49.7911 99.55L49.7811 99.54Z" fill="#CBA0A6"/>
<path d="M62.7011 43.5799C63.3411 38.7599 63.9811 33.91 63.5811 29.06C62.1911 12.14 45.8311 5.85994 31.1011 10.3299C22.0111 13.0899 15.9811 20.7799 16.4811 30.4599C16.7011 34.7699 17.8311 39.09 20.1411 42.73C22.4511 46.37 26.2211 49.7199 30.3811 50.8599C30.9511 52.4399 31.5111 54.0199 32.0811 55.6099C32.2611 56.1199 32.4811 56.6699 32.9511 56.9299C33.8011 57.3999 34.9511 56.71 35.6411 56.03C36.2211 58.24 37.9411 60.1799 40.0811 60.9599C41.1511 62.7199 43.6211 63.45 45.4711 62.56C40.4211 73.3999 40.7111 85.64 41.6711 97.56C42.0311 101.99 42.4911 106.5 44.3011 110.56C46.1011 114.62 49.4711 118.23 53.8111 119.21C58.4211 120.25 63.3111 118.13 66.6411 114.78C69.9711 111.43 71.9811 107 73.6111 102.57C77.3611 92.43 79.5511 81.5 78.1811 70.78C76.8211 60.06 71.4911 49.84 62.6911 43.57L62.7011 43.5799Z" fill="#EBBCC3"/>
<path d="M43.901 87.53C41.491 84.69 38.981 81.77 35.671 80.07C32.351 78.37 27.981 78.16 25.141 80.57C22.091 83.16 21.761 87.66 21.661 91.65C21.571 95.12 21.481 98.6 21.391 102.07C19.371 100.7 16.811 100.01 14.921 101.56C13.781 102.5 13.351 104.1 13.501 105.57C13.651 107.04 14.321 108.4 15.051 109.69C16.771 112.73 18.941 115.51 21.471 117.92C22.431 118.84 23.651 119.77 24.961 119.56C26.091 119.38 26.941 118.36 27.281 117.27C27.621 116.18 29.661 102.79 30.771 97.35C34.751 107.27 41.671 115.28 51.831 118.61C48.031 108.67 50.801 95.63 43.911 87.52L43.901 87.53Z" fill="#EBBCC3"/>
<path d="M51.011 71.82C49.401 72.71 47.701 72.83 45.871 73C44.041 73.17 42.081 73.35 40.611 72.26C39.131 71.17 38.161 69.34 38.351 67.51C39.081 67.51 39.371 66.84 39.591 66.15C39.961 64.95 39.731 63.57 38.981 62.56C38.231 61.55 36.991 60.92 35.731 60.92C34.721 60.27 33.391 60.18 32.221 60.44C31.041 60.7 29.981 61.46 29.351 62.48C26.381 67.26 30.801 74.09 35.171 77.63C39.551 81.17 45.821 82.19 51.091 80.24C50.921 77.45 51.641 74.54 51.021 71.82H51.011Z" fill="#EBBCC3"/>
<path d="M43.3008 72.8701C47.8208 73.1601 52.4308 71.57 55.8108 68.55" stroke="#A17278" stroke-width="0.5" stroke-linecap="round" stroke-linejoin="round"/>
<path d="M42.771 81.05C47.741 81.72 52.881 81.12 57.571 79.34" stroke="#A17278" stroke-width="0.5" stroke-linecap="round" stroke-linejoin="round"/>
<path d="M42.6611 86.37C46.5411 90.03 49.8711 94.27 52.5111 98.9" stroke="#A17278" stroke-width="0.5" stroke-linecap="round" stroke-linejoin="round"/>
<path d="M30.381 95.61C30.161 93.98 29.941 92.34 29.731 90.71" stroke="#A17278" stroke-width="0.5" stroke-linecap="round" stroke-linejoin="round"/>
<path d="M33.561 49.98C35.131 49.83 36.711 49.46 38.011 48.57C39.311 47.69 40.301 46.24 40.331 44.66" stroke="#A17278" stroke-width="0.5" stroke-linecap="round" stroke-linejoin="round"/>
<path d="M49.4708 38.75C48.9908 37.06 49.6108 35.09 51.0408 34.07C52.4708 33.05 54.6208 33.15 55.8808 34.38C58.1508 36.59 58.0508 41.49 56.4708 44.04C55.7108 45.27 53.9608 46.02 52.7608 45.21" stroke="#A17278" stroke-width="0.5" stroke-linecap="round" stroke-linejoin="round"/>
<path d="M53.5609 36.42C52.8609 36.46 52.2909 37.06 52.0909 37.74C51.8909 38.41 51.9909 39.14 52.1509 39.82C52.5909 39.81 53.0709 39.86 53.4409 40.1C53.8109 40.34 54.0708 40.79 54.0108 41.22C53.9608 41.55 53.7508 41.83 53.4808 42.04C53.2208 42.24 52.9008 42.37 52.6008 42.5" stroke="#A17278" stroke-width="0.5" stroke-linecap="round" stroke-linejoin="round"/>
</svg>
