<svg width="12" height="12" viewBox="0 0 12 12" fill="none" xmlns="http://www.w3.org/2000/svg"><path d="M9.27409 0.115503C9.00005 0.1137 8.73142 0.211056 8.52409 0.418388L8.06255 0.894349L11.1058 3.95204L11.5674 3.47608C11.9838 3.05961 11.9874 2.38353 11.5674 1.96166L10.0385 0.432811C9.82757 0.221873 9.54813 0.117306 9.27409 0.115503ZM7.54332 1.31262L6.82217 2.00493L9.99524 5.178L10.7308 4.50012L7.54332 1.31262ZM6.36063 2.50973L1.37024 7.45685C1.25486 7.51634 1.17193 7.62091 1.13947 7.74531L0.0721663 11.3655C0.0234885 11.5242 0.0667576 11.699 0.183945 11.8162C0.301133 11.9334 0.476012 11.9767 0.634666 11.928L4.25486 10.8607C4.42253 10.8355 4.56135 10.7183 4.61544 10.5578L9.5337 5.68281L8.30774 4.45685H8.29332L7.4712 3.62031L6.36063 2.50973ZM1.91832 8.27896L2.16351 8.52416L3.36063 8.62512L3.41832 9.79339L3.7212 10.0963L1.77409 10.6588L1.3414 10.2261L1.91832 8.27896Z" fill="#E0DCD3"/></svg>