<svg width="339" height="363" viewBox="0 0 339 363" fill="none" xmlns="http://www.w3.org/2000/svg">
  <path d="M6.84693 244.104C3.02906 243.237 1.3352 248.028 5.15307 248.896C8.97094 249.763 10.6648 244.972 6.84693 244.104Z" fill="#EDDFD4"/>
  <path d="M19.1292 206.125C14.0387 205.085 11.7803 210.834 16.8708 211.875C21.9613 212.915 24.2197 207.166 19.1292 206.125Z" fill="#EDDFD4"/>
  <path d="M110.488 188.146C106.034 186.932 104.058 193.64 108.512 194.854C112.966 196.068 114.942 189.36 110.488 188.146Z" fill="#EDDFD4"/>
  <path d="M146.512 180.896C150.966 181.763 152.942 176.972 148.488 176.104C144.034 175.237 142.058 180.028 146.512 180.896Z" fill="#EDDFD4"/>
  <path d="M62.8469 274.146C59.029 272.932 57.3352 279.64 61.1531 280.854C64.971 282.068 66.6648 275.36 62.8469 274.146Z" fill="#EDDFD4"/>
  <path d="M115.512 262.896C119.966 263.763 121.942 258.972 117.488 258.104C113.034 257.237 111.058 262.028 115.512 262.896Z" fill="#EDDFD4"/>
  <path d="M264.153 239.896C267.971 240.763 269.665 235.972 265.847 235.104C262.029 234.237 260.335 239.028 264.153 239.896Z" fill="#EDDFD4"/>
  <path d="M327.153 195.875C330.971 196.915 332.665 191.166 328.847 190.125C325.029 189.085 323.335 194.834 327.153 195.875Z" fill="#EDDFD4"/>
  <path d="M333.512 266.896C337.966 267.763 339.942 262.972 335.488 262.104C331.034 261.237 329.058 266.028 333.512 266.896Z" fill="#EDDFD4"/>
  <path d="M288.794 305.896C291.976 306.763 293.387 301.972 290.206 301.104C287.024 300.237 285.613 305.028 288.794 305.896Z" fill="#EDDFD4"/>
  <path d="M137.206 312.146C134.024 310.932 132.613 317.64 135.794 318.854C138.976 320.068 140.387 313.36 137.206 312.146Z" fill="#EDDFD4"/>
  <path d="M199.847 362.125C196.029 361.085 194.335 366.834 198.153 367.875C201.971 368.915 203.665 363.166 199.847 362.125Z" fill="#EDDFD4"/>
  <path d="M230.153 321.875C233.971 322.915 235.665 317.166 231.847 316.125C228.029 315.085 226.335 320.834 230.153 321.875Z" fill="#EDDFD4"/>
  <path d="M53.1292 336.146C48.0387 334.932 45.7803 341.64 50.8708 342.854C55.9613 344.068 58.2197 337.36 53.1292 336.146Z" fill="#EDDFD4"/>
  <path d="M226.153 167.875C229.971 168.915 231.665 163.166 227.847 162.125C224.029 161.085 222.335 166.834 226.153 167.875Z" fill="#EDDFD4"/>
  <path d="M241.794 110.854C244.976 112.068 246.387 105.36 243.206 104.146C240.024 102.932 238.613 109.64 241.794 110.854Z" fill="#EDDFD4"/>
  <path d="M184.206 173.146C181.024 171.932 179.613 178.64 182.794 179.854C185.976 181.068 187.387 174.36 184.206 173.146Z" fill="#EDDFD4"/>
  <path d="M10.7942 33.8329C13.9758 35.2203 15.3873 27.5546 12.2058 26.1671C9.02421 24.7797 7.61267 32.4454 10.7942 33.8329Z" fill="#EDDFD4"/>
  <path d="M91.7942 240.896C94.9758 241.763 96.3873 236.972 93.2058 236.104C90.0242 235.237 88.6127 240.028 91.7942 240.896Z" fill="#EDDFD4"/>
  <path d="M44.7942 195.875C47.9758 196.915 49.3873 191.166 46.2058 190.125C43.0242 189.085 41.6127 194.834 44.7942 195.875Z" fill="#EDDFD4"/>
  <path d="M149.153 132.854C152.971 134.068 154.665 127.36 150.847 126.146C147.029 124.932 145.335 131.64 149.153 132.854Z" fill="#EDDFD4"/>
  <path d="M154.794 31.8746C157.976 32.9152 159.387 27.166 156.206 26.1254C153.024 25.0848 151.613 30.834 154.794 31.8746Z" fill="#EDDFD4"/>
  <path d="M52.2591 112.253C54.3313 111.241 56.1343 107.912 56.9954 105.995C58.2064 103.278 59.1214 99.7362 58.9869 96.7534C58.7985 92.4657 57.0493 87.8052 52.0707 90.2553C50.8597 90.8412 48.8145 91.4271 47.6843 91.4271C47.3075 91.4271 46.2311 91.2407 45.639 91.0543C45.4238 90.9744 44.5626 90.4683 44.5088 90.4949C44.455 90.4417 44.4011 90.4151 44.3473 90.3618C45.7736 86.0741 46.7155 80.0021 43.4593 77.0193C39.4765 73.3974 35.0362 80.3749 33.7983 83.1979C30.1653 91.4271 27.5011 103.438 33.7444 111.161C38.5077 117.047 46.4195 115.129 52.2591 112.253Z" fill="#EDDFD4"/>
  <path d="M70.6397 20.0282C69.519 14.6363 65.8015 14.364 62.1113 17.6319C59.1865 20.2189 54.2116 21.9345 50.9041 19.7287C50.6034 19.5381 49.674 18.5849 49.3187 18.0675C49.5374 18.3943 49.428 18.2582 49.2367 18.0403C49.4007 17.7135 49.5374 17.3595 49.7287 17.0327C51.7515 13.1386 53.5556 4.45156 49.7287 1.04756C45.5465 -2.68321 41.3643 4.53327 39.9155 7.3654C35.0226 16.8693 31.7151 32.7183 40.3255 41.2692C48.2526 49.1392 59.0772 43.012 65.8562 37.0754C70.011 33.3991 71.7605 25.284 70.6944 20.0555" fill="#EDDFD4"/>
  <path d="M96.9183 102.81C108.005 107.769 115.916 96.032 123.572 89.6677C127.899 86.0585 130.075 79.4187 129.998 73.633C129.947 70.1616 127.796 63.2463 123.418 66.9106C119.065 70.5473 114.892 76.8014 109.643 78.8953C107.006 79.9422 104.292 79.3085 101.988 77.6555C100.964 76.9391 100.247 75.3688 99.3762 74.68C100.912 70.3269 102.065 63.0534 98.7618 60.0228C94.8188 56.3861 90.9015 63.384 89.5701 66.4147C84.2446 78.3994 83.5277 96.831 96.9439 102.81M99.3251 74.6524C99.3251 74.6524 99.2738 74.6249 99.2738 74.5973C97.7888 73.5779 99.9651 72.1453 99.3251 74.6524Z" fill="#EDDFD4"/>
  <path d="M328.647 319.157C329.128 318.462 328.647 319.157 328.353 319.478C328.192 319.611 327.47 320.172 327.337 320.252C326.829 320.546 326.08 320.894 325.091 321.108C323.059 321.535 320.92 321.188 318.969 320.039C317.739 319.317 316.75 318.248 316.108 317.126C317.98 313.091 319.37 305.208 315.814 302.028C311.697 298.367 307.66 305.448 306.216 308.228C301.083 318.008 299.051 334.629 309.451 342.004C319.343 348.979 329.422 342.726 335.464 333.988C338.405 329.739 340.303 322.096 337.924 317.233C335.384 312.102 330.759 316.111 328.647 319.184" fill="#EDDFD4"/>
  <path d="M270.363 171.998C279.842 171.863 289.159 167.523 297.644 163.671C302.746 161.365 305.19 155.479 305.915 150.109C306.21 147.857 305.995 137.36 300.974 139.639C294.852 142.432 288.596 145.091 282.071 146.745C279.224 147.45 276.136 148.237 273.183 147.776C272.807 147.722 272.485 147.64 272.189 147.559C273.424 143.273 274.257 137.713 271.088 134.973C267.114 131.528 262.603 138.092 261.449 141.266C257.528 151.872 253.501 172.215 270.363 171.998Z" fill="#EDDFD4"/>
  <path d="M296.482 224.26C296.803 220.765 296.909 213.403 291.568 214.039C286.655 214.648 283.69 223.466 283.343 227.279C282.542 235.673 282.328 248.887 292.289 252.276C299.874 254.871 308.607 249.999 314.295 245.418C318.781 241.816 321.078 235.673 320.998 230.006C320.945 226.776 318.648 219.891 314.135 223.545C309.942 226.908 295.601 234.005 296.536 224.26" fill="#EDDFD4"/>
  <path d="M211.115 125.859C218.93 123.514 222.537 99.5286 214.356 102.008C210.33 103.221 206.671 105.565 203.116 107.829C200.137 109.716 195.798 113.596 192.139 113.785C190.074 113.893 189.08 112.734 188.714 111.036C188.27 109.042 188.767 107.991 189.133 106.023C188.688 108.341 190.884 100.768 189.42 104.784C190.91 100.714 193.393 92.4677 189.42 88.9643C185.552 85.5416 181.161 92.0904 180.037 95.2165C176.142 105.996 170.758 126.101 180.507 135.372C189.708 144.104 202.385 128.5 211.088 125.885" fill="#EDDFD4"/>
  <path d="M32.6959 156.925C31.6715 151.834 27.9677 151.142 24.5003 154.553C22.2676 156.738 18.879 158.364 16.0946 156.685C14.8074 155.912 14.1507 154.899 13.6517 153.62C13.7305 153.727 13.4941 152.821 13.3364 152.208C13.3364 152.128 13.3364 151.994 13.3364 151.754C14.177 147.837 15.1489 140.614 10.6308 139.175C6.00768 137.682 2.25134 146.158 1.5421 149.276C-0.53307 158.284 -1.68887 171.051 6.00765 177.954C13.3364 184.51 22.1625 179.286 28.0465 173.529C31.9342 169.691 33.7729 162.175 32.6959 156.872" fill="#EDDFD4"/>
  <path d="M238.734 270.157C235.103 279.581 232.521 291.932 238.841 300.876C244.22 308.542 253.417 306.492 260.248 301.967C264.927 298.853 267.078 291.799 266.998 286.475C266.944 282.775 264.82 276.812 260.086 279.98C257.128 281.95 253.525 283.6 250.459 281.417C249.437 280.699 248.98 279.554 248.845 279.101C248.845 279.101 248.818 278.809 248.765 278.676C250.324 274.363 252.099 267.389 248.388 264.009C244.489 260.442 239.836 267.256 238.734 270.184" fill="#EDDFD4"/>
  <path d="M266.049 372.873C269.804 368.841 271.801 361.903 270.697 356.509C269.726 351.717 265.891 350.565 262.476 354.205C261.977 354.755 262.135 354.702 260.664 355.697C259.482 356.509 258.195 357.268 256.882 357.897C254.413 359.075 251.708 359.886 249.002 360.358C246.98 360.724 245.141 360.855 243.198 360.358C244.275 356.326 244.721 351.377 241.858 348.942C237.918 345.59 233.637 352.032 232.429 355.016C228.699 364.128 224.786 383.006 239.547 383.949C249.029 384.551 259.614 379.76 266.022 372.9" fill="#EDDFD4"/>
  <path d="M242.911 207.814C236.367 209.379 229.271 211.474 222.451 211.155C219.579 211.023 217.508 210.333 215.41 208.981C215.299 208.901 215.189 208.822 215.134 208.742C215.299 208.238 215.603 207.098 215.852 206.515C217.425 202.511 220.049 194.396 215.852 190.949C211.765 187.581 207.154 194.025 205.939 197.101C201.88 207.416 195.502 227.782 210.108 233.537C218.999 237.037 230.734 233.43 239.542 231.309C247.826 229.32 251.885 205.693 242.966 207.814" fill="#EDDFD4"/>
  <path d="M88.333 176.856C96.669 175.982 105.086 170.92 112.204 166.963C116.995 164.291 119.079 156.917 118.998 152.01C118.944 148.155 116.887 143.017 112.042 145.74C106.927 148.592 102.001 151.239 96.7232 152.934C95.9112 153.191 95.0993 153.423 94.2873 153.628C95.2346 149.8 95.2887 145.226 92.6363 142.991C88.4954 139.471 84.3544 146.254 82.92 148.952C78.8332 156.609 72.0939 178.603 88.3601 176.907" fill="#EDDFD4"/>
  <path d="M162.008 265.585C162.407 271.268 163.456 279.671 169.526 281.637C174.821 283.361 180.066 278.594 183.288 274.688C186.785 270.433 188.783 263.511 187.709 257.855C186.785 253.034 183.064 251.606 179.916 255.458C179.792 255.619 178.742 256.751 178.792 256.751C178.468 257.02 178.143 257.262 177.793 257.478C177.843 257.397 176.994 257.828 176.769 257.882C176.719 257.882 176.669 257.909 176.619 257.936C176.544 257.936 176.42 257.936 176.27 257.936C176.195 257.936 175.92 257.909 175.67 257.855C175.47 257.693 175.221 257.397 175.096 257.235L175.046 257.128C175.096 256.778 174.571 254.434 174.721 256.427C174.446 252.684 172.798 246.785 168.302 249.856C164.181 252.657 161.683 260.521 162.032 265.531" fill="#EDDFD4"/>
  <path d="M163.345 228.23C167.983 225.297 170.077 218.351 169.998 213.257C169.945 209.629 167.877 203.995 163.186 206.979C158.733 209.809 151.629 214.517 145.93 212.691C140.47 210.967 141.344 204.355 141.636 199.93C141.901 195.917 139.33 191.261 134.824 193.653C129.894 196.277 128.515 203.841 128.171 208.626C127.588 217.296 128.012 230.313 137.448 234.713C145.93 238.675 156.453 232.629 163.371 228.23" fill="#EDDFD4"/>
  <path d="M61.6691 240.252C60.6357 235.46 56.8994 234.728 53.4017 238.007C50.8314 240.428 47.731 242.9 44.3128 244.136C40.391 245.574 38.6422 244.514 37.4498 240.857C35.7539 235.636 29.9243 240.201 28.2549 242.698C25.1281 247.39 24.1212 253.241 25.817 258.512C31.1697 275.057 48.8705 263.632 57.0054 255.99C60.9007 252.308 62.782 245.271 61.6956 240.227" fill="#EDDFD4"/>
  <path d="M191.677 315.392C193.789 312.464 191.196 315.761 190.448 316.473C189.994 316.922 189.513 317.344 189.031 317.766C188.844 317.924 188.524 318.188 188.283 318.373C185.664 320.377 183.018 322.224 180.158 323.859C178.715 324.677 179.276 324.545 177.512 325.046C177.967 321.248 177.539 316.632 174.118 315.577C169.2 314.047 165.886 322.567 164.87 325.574C162.011 334.068 160.514 353.508 175.133 348.048C184.247 344.645 192.827 337.761 198.466 329.979C201.459 325.838 203.277 318.188 200.925 313.44C198.386 308.323 193.816 312.385 191.651 315.366" fill="#EDDFD4"/>
  <path d="M120.176 364.52C115.527 368.917 101.77 376.923 99.5953 366.416C98.6166 361.65 94.5113 360.544 91.113 364.072C87.2524 368.048 85.1862 375.158 86.3009 380.53C88.068 389.009 92.9345 395.882 102.667 394.908C110.742 394.091 118.246 388.588 123.873 383.295C127.897 379.503 129.8 372.077 128.685 366.837C127.625 361.808 123.792 361.123 120.203 364.493" fill="#EDDFD4"/>
  <path d="M84.3864 326.636C94.5231 328.777 103.979 321.07 109.532 313.942C112.544 310.088 114.22 302.608 111.941 298.15C109.427 293.213 105 297.218 102.853 299.988C104.293 298.124 101.307 301.096 101.752 300.87C100.652 301.726 99.4212 302.482 98.164 303.086C97.1686 303.565 93.9731 304.572 91.8514 304.547C92.1134 304.547 91.4062 304.396 90.7513 304.27C92.3491 300.291 93.3183 293.767 90.0703 290.971C86.0628 287.521 82.0553 294.17 80.667 296.815C76.6333 304.446 71.0542 323.815 84.4126 326.636" fill="#EDDFD4"/>
</svg>