<svg width="12" height="12" viewBox="0 0 12 12" fill="none" xmlns="http://www.w3.org/2000/svg">
  <path d="M6.67959 9.44015C6.67959 9.06447 6.37522 8.75977 5.99987 8.75977C5.62419 8.75977 5.31982 9.06447 5.31982 9.44015V11.3203C5.31982 11.6953 5.6241 12 5.99987 12C6.37522 12 6.67959 11.6953 6.67959 11.3203V11.3188V9.44015Z" fill="#FBFAF9"/>
  <path d="M6.6796 0.664312C6.67081 0.29624 6.37014 0 5.99988 0C5.62962 0 5.32862 0.29624 5.32016 0.664312H5.31982V2.56015C5.31982 2.93551 5.6241 3.24019 5.99987 3.24019C6.37522 3.24019 6.67959 2.93549 6.67959 2.56015V0.680384V0.678878L6.6796 0.664312Z" fill="#FBFAF9"/>
  <path d="M10.2419 9.28044L8.91399 7.95257C8.91365 7.9519 8.91365 7.9519 8.91324 7.9519C8.6477 7.68596 8.21704 7.68596 7.95159 7.9519C7.68606 8.217 7.68606 8.64769 7.95159 8.91354L9.28088 10.2429C9.54641 10.5081 9.97708 10.5081 10.2425 10.2429C10.5081 9.97698 10.5081 9.54629 10.2425 9.28127C10.2422 9.28043 10.2422 9.28043 10.2419 9.28043L10.2419 9.28044Z" fill="#FBFAF9"/>
  <path d="M1.74625 2.70816L3.0866 4.04817V4.04892C3.35245 4.31402 3.78314 4.31402 4.04824 4.04858C4.3141 3.78305 4.3141 3.35238 4.04824 3.08694L2.71962 1.75866C2.71962 1.7579 2.71962 1.7579 2.71887 1.75757C2.71887 1.75757 2.71853 1.75723 2.7182 1.75681L2.7079 1.74652V1.74685C2.4413 1.49195 2.01939 1.49564 1.75723 1.75748C1.49572 2.01933 1.49204 2.44155 1.74659 2.70784L1.74625 2.70816Z" fill="#FBFAF9"/>
  <path d="M11.3196 5.32007H11.3189H9.44098H9.43989C9.06445 5.32007 8.75977 5.62434 8.75977 5.99979C8.75977 6.37555 9.06447 6.68026 9.43989 6.68026H11.3196C11.6953 6.68026 12 6.37555 12 5.99979C12 5.62443 11.6953 5.32007 11.3196 5.32007Z" fill="#FBFAF9"/>
  <path d="M2.55948 6.68026H2.5599C2.93558 6.68026 3.23994 6.37555 3.23994 5.99979C3.23994 5.62443 2.93558 5.32007 2.5599 5.32007H0.681221H0.680468H0.678961H0.664312C0.295919 5.32886 0 5.62953 0 5.99979C0 6.37045 0.295919 6.67072 0.664312 6.67951V6.68026L2.55948 6.68026Z" fill="#FBFAF9"/>
  <path d="M8.91325 4.0483L10.2425 2.71933C10.5081 2.45348 10.5081 2.02279 10.2425 1.75725C9.97709 1.49172 9.54642 1.49172 9.28089 1.75725C9.28047 1.75759 9.28047 1.75759 9.28013 1.75834L7.95226 3.08587C7.95193 3.08621 7.95193 3.08621 7.95159 3.08663C7.68606 3.35216 7.68606 3.78283 7.95159 4.04827C8.21704 4.31381 8.6477 4.31381 8.91324 4.04827L8.91325 4.0483Z" fill="#FBFAF9"/>
  <path d="M3.08652 7.95183L1.7579 9.28046C1.7579 9.28046 1.75756 9.28046 1.75723 9.28121C1.75723 9.28121 1.75681 9.28121 1.75647 9.28196L1.74618 9.29226H1.7466C1.49204 9.5588 1.49572 9.98068 1.75723 10.243C2.01939 10.5044 2.4413 10.5082 2.7079 10.254L4.04825 8.91355C4.3141 8.6477 4.3141 8.21701 4.04825 7.95191C3.78306 7.68597 3.35237 7.68597 3.08652 7.95182L3.08652 7.95183Z" fill="#FBFAF9"/>
</svg>
